<?xml version="1.0" encoding="utf-8"?>
<!-- Generator: $$$/GeneralStr/196=Adobe Illustrator 27.6.0, SVG Export Plug-In . SVG Version: 6.00 Build 0)  -->
<svg version="1.1" id="Capa_2_00000100372404437418128570000018387609966338593196_"
	 xmlns="http://www.w3.org/2000/svg" xmlns:xlink="http://www.w3.org/1999/xlink" x="0px" y="0px" viewBox="0 0 302 69.7"
	 style="enable-background:new 0 0 302 69.7;" xml:space="preserve">
<style type="text/css">
	.st0{fill:#A87061;}
</style>
<g id="Isolation_Mode">
	<g>
		<path class="st0" d="M135.9,38.2c2.8-4.9,5.4-9.6,8.1-14.4h1.3c0.3,1,0.4,15.1,0.1,19.4c-0.4,0-0.7,0.1-1,0.1
			c-0.1-0.1-0.2-0.2-0.2-0.2c0-5.6,0-11.2-0.2-16.9c-0.2,0.4-0.4,0.7-0.6,1.1c-2.2,3.9-4.4,7.8-6.6,11.7c-0.1,0.2-0.1,0.3-0.3,0.5
			c-0.4,0.6-1,0.6-1.4,0c-0.6-0.9-1.1-1.8-1.6-2.8c-2-3.4-4-6.8-5.9-10.3c-0.1-0.1-0.2-0.3-0.4-0.6v17.3c-0.4,0-0.7,0-1.1,0V23.9
			c1.3-0.2,1.3-0.2,1.8,0.7c2.4,4.2,4.8,8.4,7.3,12.6C135.4,37.5,135.6,37.8,135.9,38.2L135.9,38.2z"/>
		<path class="st0" d="M211.3,43.2c-1,0.3-1.7,0-2.3-0.8c-1.8-2.4-3.8-4.7-5.6-7.1c-0.5-0.6-1-0.9-1.8-0.9c-0.7,0-1.4,0-2.2,0
			c-0.3,1-0.1,2-0.1,2.9c0,0.9,0,1.9,0,2.8v3c-0.5,0.3-0.9,0.2-1.5,0.1V23.8c0.3,0,0.6-0.1,0.9-0.1c1.9,0,3.7,0,5.6,0
			c1.3,0,2.5,0.4,3.6,1.2c2.4,1.8,2.3,6.6-0.6,8.2c-0.9,0.5-1.9,0.8-2.9,1.3C206.7,37.2,209,40.2,211.3,43.2L211.3,43.2z
			 M199.4,33.3c1.2,0,2.4,0,3.5,0c1.1,0,2.1-0.2,3.1-0.7c1.7-0.8,2.5-2.2,2.3-4.4c-0.1-1.5-1-2.6-2.8-3.2c-0.5-0.2-1-0.2-1.6-0.3
			c-0.8,0-1.5-0.1-2.3,0c-0.7,0-1.5-0.1-2.2,0.1L199.4,33.3L199.4,33.3z"/>
		<path class="st0" d="M172.6,40.6V23.8c0.4,0,0.7-0.1,1.1-0.1v19.5c-0.6,0.2-0.9,0.1-1.3-0.4c-1.4-1.9-2.8-3.8-4.2-5.7
			c-2.7-3.6-5.3-7.1-8-10.7c-0.1-0.1-0.1-0.1-0.3-0.2v17h-1.1c-0.2-1-0.3-17.1-0.1-19.4c0.6-0.3,1.1-0.1,1.6,0.5
			c2.5,3.4,5.1,6.8,7.6,10.1c1.4,1.8,2.8,3.7,4.2,5.5C172.1,40.2,172.3,40.4,172.6,40.6L172.6,40.6z"/>
		<path class="st0" d="M105.6,23.8h1.2c0,0.2,0.1,0.4,0.1,0.6c0,3.6,0,7.2,0,10.8c0,0.9,0.1,1.8,0.3,2.6c0.6,2.5,2.8,4.5,5.7,4.5
			c3.1,0,5.2-2,5.8-4.4c0.2-0.8,0.2-1.6,0.2-2.4c0-3.5,0-7,0-10.4c0-0.4,0-0.8,0-1.3c0.5,0,0.9-0.1,1.4-0.1c0.1,0.3,0.1,0.6,0.1,0.8
			c0,3.8,0,7.6,0,11.4c0,1.7-0.4,3.3-1.4,4.6c-1.7,2.4-4.2,3.2-7,3c-2.8-0.3-4.8-1.7-5.9-4.3c-0.3-0.8-0.6-1.7-0.6-2.6
			C105.5,32.4,105.6,28.1,105.6,23.8L105.6,23.8z"/>
		<path class="st0" d="M297,43.2h-1.5c-0.8-2-1.7-4-2.5-6h-9.6c-0.8,2-1.7,4-2.5,6h-1.4c2.6-6.5,5.3-13,8-19.5h1.5
			C291.7,30.2,294.4,36.7,297,43.2z M292.6,36c-1.5-3.6-2.9-7.1-4.3-10.7c-0.5,1.3-1,2.5-1.5,3.6c-0.5,1.2-1,2.4-1.4,3.6
			c-0.4,1.1-1.1,2.2-1.3,3.5H292.6L292.6,36z"/>
		<path class="st0" d="M177.1,43.2c2.7-6.5,5.3-12.9,7.9-19.4h1.6c2.6,6.4,5.3,12.9,8,19.5c-0.3,0-0.6,0.1-0.8,0
			c-0.2,0-0.4,0-0.7-0.1c-0.8-2-1.7-4-2.5-6H181c-0.4,0.8-0.8,1.7-1.1,2.6c-0.4,0.9-0.7,1.7-1,2.6C178.5,43.3,178.5,43.3,177.1,43.2
			L177.1,43.2z M185.8,25.3c-1.5,3.6-2.9,7.1-4.3,10.6c2.2,0.3,7.7,0.2,8.6-0.1C188.7,32.4,187.3,28.9,185.8,25.3z"/>
		<path class="st0" d="M232.4,32.8h8.5c0.1,0.4,0.1,0.7,0.1,1c-0.2,0.1-0.3,0.2-0.4,0.2c-2.3,0-4.6,0-6.9,0c-0.4,0-0.9,0-1.4,0v8.2
			c1.1,0.2,2.3,0.1,3.4,0.1c1.1,0,2.2,0,3.3,0s2.3,0,3.5,0c0,0.4,0.1,0.6,0.1,0.9c-1,0.2-9.1,0.3-11.6,0.1c-0.2-1-0.3-17.9,0-19.5
			h11.6c0,0.3,0,0.6,0.1,1h-10.2C232.2,25.8,232.2,30.7,232.4,32.8L232.4,32.8z"/>
		<path class="st0" d="M259,40.9c0.2-0.2,0.4-0.5,0.7-0.9c0.4,0.3,0.7,0.5,1,0.8c1.6,1.3,3.5,2,5.6,1.4c3-0.8,3.9-3,3.3-5.6
			c-0.1-0.5-0.6-1-1-1.4c-1-0.9-2.3-1.1-3.5-1.6c-0.8-0.3-1.6-0.5-2.4-0.9c-2.1-1-3-2.7-2.9-4.5c0.2-2.4,1.6-4,3.6-4.5
			c2.3-0.6,4.5-0.4,6.5,1c0.7,0.5,0.7,0.7,0,1.5c-0.7-0.4-1.3-0.8-2-1.2c-2-1-4.6-0.5-5.9,1.2c-1,1.3-0.9,3.4,0.3,4.5
			c0.5,0.5,1.2,0.9,1.9,1.1c1.2,0.5,2.4,0.9,3.6,1.3c0.5,0.2,1,0.4,1.4,0.7c1.8,1.3,2.4,3.4,1.6,5.6c-0.8,2.2-2.3,3.4-4.6,3.9
			C263.9,43.9,260.5,43,259,40.9L259,40.9z"/>
		<path class="st0" d="M219.2,24.8h-6.9v-1h15.1c0,0.3,0,0.6,0.1,0.8c-0.1,0.1-0.1,0.1-0.2,0.1c-2.2,0-4.3,0.1-6.6,0.1v18.3h-1.5
			c-0.1-2,0-4.1,0-6.1c0-2,0-4,0-6S219.2,27,219.2,24.8z"/>
		<path class="st0" d="M93.2,42.2h9.3v1H91.7V23.8c0.4,0,0.9,0,1.4-0.1c0,2.1,0,4.2,0,6.2c0,2,0,4,0,6L93.2,42.2L93.2,42.2z"/>
		<path class="st0" d="M151.4,23.8h1.2c0.2,0.9,0.3,17.6,0.1,19.4c-0.1,0-0.3,0.1-0.5,0.1c-0.3,0-0.5,0-0.9,0
			C151.4,43.2,151.4,23.8,151.4,23.8z"/>
		<path class="st0" d="M85.8,43.2h-1.3c0-0.2-0.1-0.3-0.1-0.5c0-3.1,0-6.2,0-9.3c0-2.8,0-5.5,0-8.3c0-0.4,0-0.9,0-1.4h1.4L85.8,43.2
			L85.8,43.2z"/>
		<path class="st0" d="M246.3,46.9c-0.5-0.9,0.4-1.2,0.6-1.7c0.2-0.6,0.5-1.1,0.8-1.7c-0.4-0.1-0.8-0.1-1-0.3
			c-0.5-0.2-0.8-0.8-0.6-1.3c0.1-0.5,0.8-1,1.3-1c0.5,0,1,0.4,1.1,1c0.2,1.4-0.2,2.7-1,3.9C247,46.1,246.7,46.4,246.3,46.9
			L246.3,46.9z"/>
		<path class="st0" d="M302,42.2c0,0.6-0.7,1.3-1.3,1.3c-0.7,0-1.4-0.6-1.3-1.3c0-0.6,0.6-1.3,1.3-1.3C301.3,40.9,302,41.6,302,42.2
			L302,42.2z"/>
		<path class="st0" d="M277.2,42.2c0,0.7-0.5,1.3-1.2,1.4c-0.6,0-1.3-0.6-1.4-1.2c-0.1-0.7,0.6-1.4,1.3-1.4S277.1,41.5,277.2,42.2
			L277.2,42.2z"/>
		<g>
			<path class="st0" d="M41.2,69.7c0.2-0.3,0.3-0.7,0.5-0.9c1.7-2.7,2.8-5.6,3.4-8.8c0.5-2.7,0.2-5.4-0.3-8.1c-1-4.7-3.2-8.8-6-12.5
				c-1-1.4-2.1-2.8-3.5-3.9c-1.3,1-2.2,2.2-3.2,3.4c-2.5,3.2-4.5,6.6-5.7,10.5c-1,3-1.5,6.1-1.2,9.2c0.4,3.6,1.5,6.9,3.4,10
				c0.2,0.3,0.4,0.7,0.6,1.1C13.4,67.2-0.9,52.7,0,33.5C0.9,14.6,16.3-0.1,35.4,0c19.1,0.1,33.5,14.8,34.9,32
				C71.9,52.9,56.3,67.4,41.2,69.7z M49.2,7.4l0.5,0.3c0,0.4,0,0.9-0.2,1.3c-0.1,0.2-0.5,0.3-0.8,0.5c0.5,0.9,0.5,1.2,0,1.6
				c-0.4,0.2-0.7,0.1-1-0.1c-0.4-0.4-0.2-1,0.6-1.7c-0.1-0.3-0.2-0.6-0.3-0.9c-1.1,0.3-1.5,0.3-1.7-0.2c-0.1-0.2-0.2-0.5-0.1-0.6
				c0.2-0.3,0.5-0.6,0.8-1C46.7,6,46.3,6,45.7,6.3C45.8,6.5,45.9,6.8,46,7c0.1,0.4,0,0.7-0.4,0.9c-0.4,0.2-0.9,0.1-1.2-0.3
				c-0.2-0.2-0.2-0.5-0.3-0.7c0.3-0.3,0.7-0.6,1-0.9c-0.3-0.8-0.8-0.6-1.3-0.4c0.1,0.5,0.2,0.9,0.3,1.3c-1.1,0.8-1.2,0.8-2-0.4
				c-0.3,0.2-0.6,0.4-0.8,0.6c0.3,1,0.2,1.4-0.2,1.5c-0.5,0.1-1,0-1.1-0.4c-0.2-0.6,0-0.9,0.9-1.3c-0.2-0.3-0.3-0.6-0.5-0.9
				c-0.4,0.1-0.7,0.2-1.1,0.3c0.1,0.2,0.3,0.3,0.4,0.5c0.2,0.5,0.1,1-0.3,1.1c-0.4,0.2-0.8,0.2-1.1-0.2c-0.3-0.3-0.2-0.9,0.1-1.2
				c0.2-0.2,0.4-0.3,0.6-0.4c-0.2-0.4-0.3-0.7-0.4-0.9c-0.4,0.2-0.7,0.4-1.1,0.5c0.5,0.8,0.6,1.2,0.2,1.5c-0.5,0.4-0.9,0.3-1.8-0.6
				c-0.3,0.1-0.5,0.2-0.8,0.4c0.1,0.2,0.2,0.4,0.3,0.6c0.1,0.4,0,0.8-0.5,1c-0.4,0.2-0.8,0.1-1-0.2c-0.2-0.2-0.2-0.6-0.3-1l0,0
				c0.3-0.2,0.6-0.4,1-0.7c-0.2-0.3-0.3-0.6-0.5-0.8c-1.2,0.5-1.5,0.3-1.9-0.7c-0.4,0.2-0.8,0.3-1.1,0.4C31.4,6.5,31.4,7,31,7.3
				c-0.5,0.4-1,0.2-1.6-0.7c-0.3,0.1-0.6,0.2-1,0.4c0.5,0.9,0.4,1.4-0.2,1.7c-0.1,0.1-0.4,0.1-0.5,0.1c-0.4-0.3-0.7-0.6-1-0.8
				C26.4,8,26,8.1,25.6,8.2l0,0c-0.2-0.3-0.5-0.7-0.7-1c-0.1,0.1-0.3,0.1-0.4,0.2c-0.1,0.1-0.3,0.2-0.4,0.3c0.3,1,0.2,1.4-0.2,1.6
				c-0.4,0.2-1,0.1-1.2-0.3c-0.1-0.2-0.2-0.6-0.1-0.8c0.2-0.3,0.5-0.5,0.8-0.8c-0.1-0.3-0.2-0.6-0.3-0.9c-0.3,0.2-0.6,0.4-0.9,0.6
				c0.4,1.1,0.3,1.4-0.2,1.6c-0.2,0.1-0.6,0.2-0.8,0.1c-0.4-0.2-0.6-0.5-0.9-0.8c-0.2,0.1-0.5,0.3-0.8,0.5c0.2,0.3,0.4,0.6,0.6,0.9
				c1.3-0.4,1.4-0.3,1.7,0.9l0,0c-0.4,0.3-0.7,0.6-1,0.9c0.3,0.9,0.2,1.3-0.2,1.5c-0.5,0.2-1,0-1.1-0.4c-0.1-0.2-0.1-0.5,0-0.6
				c0.3-0.3,0.6-0.5,0.9-0.7c-0.2-0.4-0.3-0.7-0.5-1c-0.4,0.2-0.7,0.4-1.1,0.6c0.1,0.2,0.3,0.3,0.4,0.5c0.1,0.4,0.1,0.8-0.3,1
				c-0.4,0.2-0.8,0.2-1.1-0.1c-0.3-0.3-0.3-0.8-0.1-1.1c0.2-0.2,0.4-0.4,0.7-0.6c-0.1-0.2-0.3-0.5-0.5-0.7c-0.3,0.2-0.5,0.3-0.8,0.5
				c0.3,1.4,0.2,1.6-1.2,1.7c-0.1-0.1-0.2-0.3-0.4-0.4c-0.4,0.2-0.8,0.5-0.7,1c-0.4,0.3-0.7,0.6-1.1,1c0.3,0.4,0.5,0.9,0,1.4
				c-0.6,0.6-1.1,0.1-1.5-0.3c-0.7,0.3-0.7,0.9-0.7,1.4l0-0.1c-0.4,0.2-0.7,0.5-1.1,0.7c0.5,1.4,0.3,1.6-1.6,1.7
				c0.6,0.3,1.3,0.4,1.2,1c-0.1,0.3-0.3,0.6-0.6,0.8C9.2,20,8.9,19.5,8.5,19c-0.2,0.4-0.4,0.8-0.6,1.2C8.4,20.1,8.7,20,9,20
				c0.2,0,0.5,0.3,0.6,0.4c0,0.3,0,0.7-0.2,1c-0.1,0.2-0.6,0.2-0.8,0.1c-0.3-0.2-0.5-0.6-0.8-1c-0.2,0.4-0.6,0.8-0.5,1.1
				c0.1,0.8-0.3,1.2-0.8,1.5c0,0.5,0.1,0.9,0,1.1c-0.2,0.3-0.6,0.5-0.9,0.7c0.7,1.1,0.2,1.6-0.4,2c0.1,0.5,0.3,0.9,0.1,1.1
				c-0.4,0.5-0.4,1.2-0.6,1.8C4.1,31,4.3,32.1,4,33.3c0.6,0.2,1.3,0.2,1.3,1C5,34.8,4.6,35,3.8,34.9c0.8,0.7,1,1.3,0.3,2
				C4,37,4,37.2,4,37.4c0.1,0.8,0.2,1.5,0.3,2.2c0.4,0.3,0.7,0.6,0.9,0.8c-0.2,0.5-0.5,1-0.5,1.3c0.1,0.6,0.3,1.2,0.5,1.9l0,0
				c0.3,1,0.6,1.9,0.9,2.8c0.1,0.3,0.4,0.4,0.6,0.7c0.1,0.2,0.3,0.5,0.3,0.7c-0.2,1.1,0.4,1.6,1.2,2.1c-0.2,1,0.3,1.7,1,2.3
				c0.1,0.1,0.3,0.2,0.3,0.4c0.4,1.3,1.4,2.1,2.1,3c0.4,0,0.6,0,0.9,0.1c0,0.3-0.1,0.5-0.1,0.9c1.1,0.7,1.6,2.2,3.1,2.4
				c0.1,0,0.1,0.1,0.1,0.2c-0.2,0.6,0.3,0.7,0.6,0.9c1.6,1.3,3.4,2.3,5.2,3.2c0.2,0.1,0.5,0.2,0.9,0.3c-1.3-3.7-2.2-7.2-2.7-11
				c-0.5-4.2-0.3-8.3,1-12.4c1.2-3.8,2.9-7.4,5-10.8c1.2-1.9,2.4-3.7,3.5-5.6c-0.1-0.2-0.2-0.4-0.3-0.6c0.5-0.1,0.9-0.2,1.2-0.6
				c0.7-1.1,1.5-2.2,2.3-3.2c0.2-0.3,0.4-0.5,0.1-0.9c-0.2-0.4,0-0.8,0.5-0.7c0.9,0.2,1-0.4,1.1-1c0,0,0.1,0,0.1-0.1c0,0,0,0,0-0.1
				c0,0-0.1,0.1-0.1,0.2c-0.2,0.1-0.4,0.2-0.5,0.2c-0.2-0.1-0.5-0.3-0.5-0.5c-0.1-0.1,0.1-0.4,0.2-0.6c0.2-0.2,0.5-0.2,0.7,0
				c0.1,0.1,0.2,0.2,0.3,0.3c0,0,0.2,0,0.3-0.1c0-0.2,0-0.5,0.1-0.8c-0.4-0.3-1-0.2-1.1-0.8c0-0.7,0.7-0.6,1.2-1
				c-0.9-0.7-0.4-1.7-0.7-2.5c-0.3-0.2-0.7-0.3-0.9-0.5c-0.2-0.2-0.3-0.6-0.2-0.8c0.1-0.2,0.4-0.4,0.7-0.5C34,9,34.3,9.2,34.4,9.6
				c0.1,0.2,0.1,0.5,0.1,0.9c0.4-0.5,0.7-1.1,1.3-0.8c0.2,0.1,0.4,0.5,0.4,0.7c0.1,0.6-0.5,0.7-1,0.9c0.3,0.3,0.5,0.6,0.7,0.9
				c0.1,0.1,0.2,0.1,0.2,0.1c0.1,0,0.2,0,0.3,0c1,0.1,1,0.1,0.9,1.1c0,0.3,0,0.7,0.2,0.8c0.7,0.6,1.2,1.4,1.6,2.2
				c0,0.1,0.2,0.1,0.3,0.2l0,0c0.2,0.8,0.7,1.3,1.2,1.9c0.4-0.2,0.9-0.5,1.2,0c0.3,0.5-0.4,0.6-0.6,0.9c0.2,0.3,0.4,0.7,0.6,1
				c0.1,0.2,0.3,0.4,0.5,0.4c0.7-0.1,0.7,0.3,0.6,0.8c0,0.2-0.1,0.4,0,0.6c0.3,0.5,0.8,1,1.2,1.6c0,0.2,0.1,0.6,0.2,0.9
				c0.5,1,1,2,1.5,3c1.5,3.1,2.8,6.4,3.6,9.7c0.8,3.1,1.4,6.3,1.5,9.6c0,1.6-0.1,3.3-0.2,4.9c-0.2,3-0.9,6-1.8,8.8
				c-0.3,0.8-0.5,1.7-0.8,2.5c2.7-0.6,8.7-5,11.3-8.6c0-0.3-0.1-0.5-0.2-1c0.7,0.5,1,0.1,1.2-0.3c0.9-1.5,2.2-2.7,2.4-4.5
				c0-0.1,0.1-0.2,0.1-0.2c0.9-0.4,0.7-1.1,0.4-1.8c0.4-0.3,0.8-0.5,0.9-0.8c0.1-0.4-0.1-0.8-0.2-1.3c0.2-0.1,0.3-0.2,0.5-0.2
				c0.6-0.2,0.6-0.5,0.3-0.9c-0.3-0.4-0.3-0.8,0.3-1c0.6-0.2,0.5-0.4,0.2-1c-0.1-0.2-0.1-0.4-0.2-0.6c0.3-0.3,0.6-0.5,0.9-0.7
				c-0.2-0.7-0.4-1.3,0.2-1.8c0.1,0,0-0.2,0.1-0.3c0.1-1,0.1-1.9,0.2-3c-0.3,0.1-0.6,0.2-0.9,0.3c-0.5-0.5-0.5-0.9,0-1.4
				c0.3,0.1,0.5,0.2,0.9,0.3c0-0.4,0-0.8-0.4-1c-0.6-0.3-0.6-0.8-0.2-1.1c0.5-0.5,0.4-1,0.3-1.5c-0.1-0.5-0.2-1-0.3-1.6
				c-0.7-0.4-0.9-0.9-0.5-1.7c0.2-0.4,0-1.1-0.3-1.3c-0.2,0.1-0.4,0.3-0.7,0.4c-0.4-0.3-0.9-0.5-0.7-1c0.1-0.6,0.8-0.5,1.2-0.7
				c-0.5-0.5-0.7-1-0.7-1.6c0-0.5-0.2-1-0.8-1.2c-0.3-0.1-0.6-0.5-0.4-1s-0.1-1-0.4-1.1c-0.8-0.4-0.9-1.1-1-1.8c0,0-0.1-0.1-0.2-0.1
				c-0.1,0.2-0.1,0.5-0.2,0.6c-0.3,0.4-0.9,0.5-1.3,0.1c-0.3-0.3-0.3-0.8,0.2-1.1c0.2-0.2,0.5-0.2,0.7-0.3c-0.2-0.4-0.5-0.7-0.7-1.1
				c-0.9,0.5-1.1,0.5-1.5,0c-0.1-0.1-0.2-0.4-0.2-0.5c0.1-0.4,0.3-0.7,0.5-1c-0.4-1-1.9-0.4-2.1-1.6c-0.6,0.3-1.1,0.4-1.5-0.1
				c-0.5-0.6,0.1-1,0.4-1.4c-0.3-0.8-0.9-0.6-1.5-0.6l0,0c-0.2-0.3-0.5-0.6-0.7-1c-0.3,0.1-0.6,0.3-1,0.4l0,0c-0.3-0.3-0.7-0.7-1-1
				c-0.9,0.3-1.2,0.3-1.5-0.2c-0.3-0.5-0.2-0.8,0.6-1.5c-0.4-0.1-0.7-0.2-1-0.3C49.5,7.7,49.3,7.6,49.2,7.4C48.7,7,48.3,6.8,47.7,7
				c0.1,0.3,0.2,0.6,0.3,0.9C48.3,7.7,48.7,7.6,49.2,7.4L49.2,7.4z M29.2,5.2c0.1,0.4,0.2,0.8,0.3,1.1c0.3-0.2,0.6-0.4,1-0.7
				c-0.2-0.3-0.3-0.5-0.5-0.8C29.7,4.9,29.5,5,29.2,5.2L29.2,5.2z M26.5,6.5c0.2,0.3,0.4,0.6,0.6,0.9c0.3-0.2,0.6-0.4,0.9-0.6
				c-0.2-0.2-0.4-0.5-0.6-0.7C27,6.2,26.8,6.3,26.5,6.5L26.5,6.5z M34.4,4.1c-0.3,0.2-0.5,0.3-0.8,0.5c0.1,0.3,0.2,0.6,0.3,0.9
				c0.3-0.2,0.6-0.4,0.9-0.6C34.8,4.6,34.6,4.4,34.4,4.1z M35.9,6.1c0.3-0.2,0.6-0.4,0.9-0.6c-0.2-0.3-0.3-0.5-0.5-0.8
				C36,4.9,35.8,5,35.6,5.2C35.7,5.5,35.8,5.8,35.9,6.1L35.9,6.1z M42.3,6c0.3-0.2,0.6-0.4,0.9-0.6c-0.7-0.6-1-0.7-1.2-0.2
				C42.1,5.5,42.2,5.7,42.3,6z M25.2,6.6c0.3-0.2,0.6-0.2,0.9-0.4c-0.3-0.3-0.5-0.9-1-0.5C24.6,6.1,25,6.3,25.2,6.6z M41.4,4.9
				c-0.5-0.4-0.8-0.5-1.3-0.3c0.1,0.2,0.2,0.4,0.3,0.7C40.8,5.2,41,5,41.4,4.9z M28.6,4.9c-0.6-0.1-1-0.1-1.1,0.7
				C27.9,5.3,28.2,5.1,28.6,4.9z M33.1,4.2c-0.5,0-0.9,0.2-1,0.6C32.4,4.6,32.6,4.5,33.1,4.2z M39.1,4.3h-0.8
				C38.5,4.6,38.8,4.6,39.1,4.3z M52,9c0,0,0-0.1-0.1-0.1c0,0.1-0.1,0.1-0.1,0.2c0,0,0,0.1,0.1,0.1C52,9.1,52,9.1,52,9L52,9z"/>
			<path class="st0" d="M14.9,12c0.4-0.2,0.7-0.4,1.1-0.6c0.5,0.4,0.9,0.7,0.8,1.4l0-0.1c0,0-0.1,0-0.1,0
				C15.5,13.7,15.1,13.5,14.9,12L14.9,12z"/>
			<path class="st0" d="M25.6,8.2c0.1,0.1,0.1,0.2,0.2,0.3c0.7,0.9,0.4,1.4-0.6,1.6c-0.1,0-0.3,0-0.4,0l0,0
				c-0.1-0.4-0.3-0.9-0.4-1.4C24.9,8.5,25.3,8.4,25.6,8.2L25.6,8.2L25.6,8.2z"/>
			<path class="st0" d="M21.9,10.1c0.2-0.1,0.3-0.3,0.5-0.4c0.5-0.3,0.9-0.2,1.2,0.3c0.2,0.4,0.1,0.8-0.3,1.1
				c-0.4,0.3-0.8,0.2-1.1-0.3C22,10.7,22,10.4,21.9,10.1L21.9,10.1z"/>
			<path class="st0" d="M33.4,7.4c-0.2,0.2-0.3,0.4-0.5,0.5c-0.4,0.3-1,0.1-1.2-0.3c-0.2-0.4-0.1-0.9,0.2-1.2
				c0.4-0.3,0.9-0.2,1.2,0.2C33.2,6.9,33.2,7.2,33.4,7.4L33.4,7.4L33.4,7.4z"/>
			<path class="st0" d="M45.4,9.6c0.1-0.2,0.2-0.4,0.4-0.5C46,9,46.4,8.8,46.6,8.8c0.3,0.1,0.5,0.5,0.6,0.8c0.1,0.4-0.2,0.7-0.5,0.8
				c-0.2,0.1-0.4,0.1-0.6,0C45.7,10.3,45.6,9.9,45.4,9.6L45.4,9.6z"/>
			<path class="st0" d="M51.8,12.5c0,0,0-0.1,0-0.1c-0.3-0.3-0.7-0.7-0.5-1.2c0.2-0.5,0.8-0.6,1.3-0.5l0,0c0,0,0,0.1,0,0.1
				C53.2,11.9,53,12.2,51.8,12.5L51.8,12.5L51.8,12.5z"/>
			<path class="st0" d="M54.2,11.2c0.2,0.2,0.4,0.3,0.5,0.6c0.3,0.4,0.1,0.9-0.2,1.2c-0.4,0.3-0.8,0.2-1.2-0.2
				c-0.3-0.4-0.3-0.8,0.1-1.1C53.6,11.4,53.9,11.3,54.2,11.2L54.2,11.2L54.2,11.2z"/>
			<path class="st0" d="M45.4,9.6c-0.3,0.1-0.6,0.3-1,0.3c-0.4,0.1-0.6-0.2-0.8-0.6c-0.2-0.4,0-0.7,0.3-0.9c0.3-0.2,0.7-0.2,1,0
				C45.4,8.7,45.4,9.1,45.4,9.6L45.4,9.6L45.4,9.6z"/>
			<path class="st0" d="M30.7,8.6c0,0.5-0.3,0.8-0.8,0.8c-0.5,0-0.8-0.2-0.8-0.8c0-0.6,0.3-0.9,0.9-0.9C30.4,7.7,30.7,8.1,30.7,8.6z
				"/>
			<path class="st0" d="M11.7,15.5c0.3-0.3,0.6-0.8,1.2-0.6c0.3,0.1,0.6,0.3,0.6,0.6c0.2,0.4-0.1,0.8-0.5,0.9
				c-0.2,0.1-0.6,0.1-0.8-0.1C12,16.1,11.9,15.8,11.7,15.5C11.7,15.4,11.7,15.5,11.7,15.5z"/>
			<path class="st0" d="M16.8,12.8c0.3-0.2,0.5-0.4,0.8-0.6c0.4-0.1,0.8,0,1,0.5s0,0.8-0.4,1c-0.4,0.2-0.8,0.2-1-0.1
				C17,13.4,16.9,13.1,16.8,12.8C16.8,12.8,16.8,12.8,16.8,12.8z"/>
			<path class="st0" d="M9,22.7c0,0.5-0.3,0.8-0.8,0.8c-0.5,0-0.8-0.4-0.8-0.9c0-0.4,0.3-0.7,0.8-0.7C8.7,21.8,9,22.2,9,22.7z"/>
			<path class="st0" d="M57.2,14.4c1.2,0.8,1.2,1,0.1,1.8C56.1,15.6,56,15.3,57.2,14.4z"/>
			<path class="st0" d="M16,14.4c0,0.5-0.3,0.8-0.8,0.8c-0.5,0-0.8-0.3-0.8-0.8s0.3-0.8,0.8-0.8C15.7,13.5,16,13.8,16,14.4L16,14.4z
				"/>
			<path class="st0" d="M53.4,14.9c-0.5,0-0.8-0.3-0.8-0.8c0-0.4,0.3-0.8,0.7-0.8c0.5-0.1,0.9,0.3,0.9,0.7
				C54.2,14.5,53.9,14.9,53.4,14.9z"/>
			<path class="st0" d="M28,9.8c0,0.5-0.3,0.9-0.8,0.9s-0.8-0.3-0.9-0.8c0-0.4,0.3-0.8,0.7-0.8C27.6,9,28,9.3,28,9.8z"/>
			<path class="st0" d="M38.9,9.2c0,0.4-0.5,0.8-0.9,0.8c-0.4,0-0.8-0.4-0.8-0.9c0-0.5,0.4-0.9,0.8-0.8C38.5,8.3,39,8.8,38.9,9.2
				L38.9,9.2z"/>
			<path class="st0" d="M31.8,8.3c0.4,0,0.8,0.5,0.8,0.9s-0.5,0.9-0.9,0.8c-0.5-0.1-0.8-0.4-0.8-0.9C30.9,8.7,31.3,8.3,31.8,8.3z"/>
			<path class="st0" d="M43.4,8.4c0,0.4-0.4,0.9-0.8,0.9c-0.5,0-0.9-0.4-1-0.9c0-0.4,0.3-0.8,0.9-0.8C43,7.6,43.4,7.9,43.4,8.4
				L43.4,8.4z"/>
			<path class="st0" d="M37.1,8.5c0,0.4-0.5,0.8-0.9,0.8c-0.4,0-0.9-0.5-0.8-0.9c0-0.4,0.4-0.8,0.9-0.8C36.6,7.7,37.1,8.1,37.1,8.5
				L37.1,8.5z"/>
			<path class="st0" d="M51,10.9c0,0.5-0.3,0.8-0.8,0.8c-0.5,0-0.8-0.3-0.8-0.8c0-0.5,0.3-0.8,0.8-0.8C50.7,10.1,51,10.4,51,10.9
				L51,10.9z"/>
			<path class="st0" d="M42,9.6c0.5,0,0.8,0.4,0.8,0.9c0,0.4-0.4,0.7-0.8,0.7c-0.4,0-0.8-0.4-0.8-0.8C41.1,9.9,41.4,9.6,42,9.6z"/>
			<path class="st0" d="M12,16.8c0.5,0,0.8,0.3,0.8,0.8c0,0.5-0.4,0.9-0.8,0.8c-0.4,0-0.8-0.4-0.8-0.9C11.2,17.1,11.5,16.8,12,16.8z
				"/>
			<path class="st0" d="M55.4,13.9c0.4,0,0.8,0.5,0.7,0.9c-0.1,0.4-0.4,0.7-0.8,0.7c-0.5,0-0.8-0.4-0.8-0.9
				C54.5,14.2,55,13.8,55.4,13.9L55.4,13.9z"/>
			<path class="st0" d="M44.6,10.9c0,0.4-0.3,0.8-0.7,0.8c-0.5,0-0.9-0.3-0.9-0.8c0-0.4,0.3-0.8,0.7-0.8
				C44.2,10.1,44.6,10.4,44.6,10.9L44.6,10.9z"/>
			<path class="st0" d="M24.8,10.1c0.2,0.2,0.4,0.3,0.6,0.5c0.3,0.4,0.3,0.7,0,1.1C25,12,24.6,12,24.3,11.7
				c-0.4-0.3-0.4-0.7-0.2-1.1C24.2,10.4,24.6,10.3,24.8,10.1L24.8,10.1L24.8,10.1z"/>
			<path class="st0" d="M12.2,19.4c0,0.4-0.5,0.9-0.9,0.8c-0.4,0-0.7-0.4-0.7-0.8c0-0.5,0.3-0.8,0.9-0.8
				C11.9,18.7,12.2,19,12.2,19.4L12.2,19.4z"/>
			<path class="st0" d="M26.6,10.9c0.4,0,0.9,0.4,0.8,0.9c0,0.4-0.4,0.7-0.8,0.7c-0.5,0-0.8-0.4-0.8-0.9
				C25.9,11.2,26.2,10.9,26.6,10.9z"/>
			<path class="st0" d="M17.9,15c0,0.5-0.3,0.8-0.8,0.8c-0.4,0-0.8-0.4-0.8-0.7c0-0.5,0.5-0.9,1-0.9C17.6,14.2,17.9,14.5,17.9,15z"
				/>
			<path class="st0" d="M59.3,17.8c0,0.4-0.3,0.8-0.7,0.8c-0.4,0-0.9-0.4-0.9-0.8c0-0.4,0.4-0.8,0.9-0.8
				C59,17.1,59.3,17.4,59.3,17.8z"/>
			<path class="st0" d="M14.5,15.5c0.4,0,0.9,0.4,0.9,0.8c0,0.4-0.4,0.8-0.8,0.8c-0.5,0-0.8-0.3-0.8-0.8
				C13.8,15.8,14.1,15.5,14.5,15.5L14.5,15.5z"/>
			<path class="st0" d="M30,10.4c0,0.4-0.2,0.7-0.7,0.8c-0.5,0-0.9-0.3-0.9-0.8c0-0.4,0.5-0.9,0.9-0.8C29.6,9.6,29.9,10,30,10.4z"/>
			<path class="st0" d="M19.7,14.4c-0.5,0-0.9-0.3-0.9-0.8c0-0.4,0.3-0.8,0.7-0.8c0.4,0,0.9,0.4,0.9,0.8
				C20.5,14,20.1,14.4,19.7,14.4L19.7,14.4z"/>
			<path class="st0" d="M40.1,10.6c-0.5-0.2-1-0.4-0.8-1C39.3,9.2,39.6,9,40,9c0.4,0,0.7,0.1,0.8,0.5C40.9,10.2,40.5,10.4,40.1,10.6
				L40.1,10.6z"/>
			<path class="st0" d="M61.7,21.9c-0.4-0.3-0.9-0.5-0.7-1.1c0.1-0.4,0.4-0.6,0.8-0.5c0.3,0.1,0.6,0.3,0.7,0.5
				C62.7,21.4,62.3,21.7,61.7,21.9L61.7,21.9z"/>
			<path class="st0" d="M56.6,18.1c-0.5-0.2-0.9-0.5-0.7-1.1c0.1-0.2,0.4-0.4,0.7-0.5c0.4-0.1,0.7,0.1,0.8,0.5
				C57.5,17.6,57.1,17.9,56.6,18.1z"/>
			<path class="st0" d="M42.1,12.4c-0.2,0.2-0.5,0.5-0.8,0.6c-0.3,0.1-0.7-0.3-0.8-0.7c0-0.4,0.3-0.8,0.7-0.8
				C41.6,11.5,42.1,11.9,42.1,12.4z"/>
			<path class="st0" d="M8.5,24.5C8.3,25,8,25.5,7.4,25.3c-0.4-0.1-0.6-0.4-0.5-0.8c0.1-0.3,0.3-0.6,0.5-0.7
				C8,23.6,8.2,24.1,8.5,24.5L8.5,24.5z"/>
			<path class="st0" d="M13.1,18.1c0.7-0.8,1-0.9,1.4-0.6c0.3,0.3,0.3,0.9,0,1.2C14,19.1,13.7,19,13.1,18.1L13.1,18.1z"/>
			<path class="st0" d="M38.2,10.9c0,0.5-0.2,0.8-0.7,0.8c-0.4,0.1-0.9-0.4-0.9-0.8c0-0.3,0.4-0.8,0.8-0.8
				C37.8,10.2,38.2,10.6,38.2,10.9L38.2,10.9z"/>
			<path class="st0" d="M50.4,12.8c0,0.4-0.5,0.8-0.9,0.8s-0.7-0.4-0.7-0.8c0-0.4,0.3-0.8,0.7-0.8C49.9,12,50.4,12.4,50.4,12.8
				L50.4,12.8z"/>
			<path class="st0" d="M47.8,14.1c0,0.4-0.3,0.8-0.7,0.8c-0.4,0-0.8-0.4-0.8-0.7c0-0.4,0.4-0.8,0.7-0.8
				C47.4,13.3,47.8,13.7,47.8,14.1L47.8,14.1z"/>
			<path class="st0" d="M21.3,12.3c0-0.4,0.4-0.6,0.9-0.6c0.5,0,0.8,0.3,0.7,0.7c0,0.4-0.5,0.9-0.8,0.8S21.3,12.7,21.3,12.3
				L21.3,12.3z"/>
			<path class="st0" d="M51.8,12.5c0.2,0.2,0.3,0.4,0.4,0.6c0.2,0.4,0.1,0.7-0.2,0.9c-0.4,0.2-0.8,0.2-1.1-0.1
				c-0.3-0.3-0.3-0.8,0.1-1C51.2,12.7,51.5,12.6,51.8,12.5L51.8,12.5z"/>
			<path class="st0" d="M53.6,16.1c0,0.4-0.5,0.7-0.9,0.7c-0.4-0.1-0.7-0.4-0.7-0.8c0.1-0.4,0.5-0.7,0.8-0.7
				C53.2,15.3,53.6,15.8,53.6,16.1L53.6,16.1z"/>
			<path class="st0" d="M55.5,16.6c0,0.4-0.4,0.8-0.8,0.7c-0.4,0-0.8-0.4-0.7-0.8c0-0.4,0.5-0.8,0.8-0.8
				C55.1,15.8,55.5,16.3,55.5,16.6L55.5,16.6z"/>
			<path class="st0" d="M16.5,16c0.8,0.6,0.9,1,0.5,1.4c-0.3,0.3-0.8,0.3-1.1,0C15.5,17,15.7,16.7,16.5,16z"/>
			<path class="st0" d="M58.7,19.7c0,0.4-0.3,0.8-0.7,0.8c-0.4,0-0.8-0.3-0.8-0.7c0-0.3,0.4-0.8,0.7-0.8
				C58.2,19,58.6,19.3,58.7,19.7L58.7,19.7z"/>
			<path class="st0" d="M10.1,22.5c0.5,0.2,0.9,0.5,0.7,1.1c-0.1,0.2-0.4,0.4-0.7,0.5c-0.4,0.1-0.6-0.2-0.7-0.6
				C9.3,22.8,9.7,22.7,10.1,22.5z"/>
			<path class="st0" d="M31.1,10.2c0.4,0,0.7,0.4,0.7,0.8c0,0.5-0.2,0.7-0.7,0.7c-0.5,0-0.8-0.3-0.8-0.7
				C30.3,10.7,30.8,10.2,31.1,10.2L31.1,10.2z"/>
			<path class="st0" d="M63.1,24.3c-0.4,0-0.8-0.3-0.8-0.7c0-0.3,0.4-0.8,0.8-0.8c0.3,0,0.8,0.4,0.8,0.8
				C63.9,23.9,63.5,24.3,63.1,24.3L63.1,24.3z"/>
			<path class="st0" d="M45,11.5c0-0.4,0.4-0.7,0.8-0.7c0.5,0,0.7,0.3,0.7,0.7c0,0.4-0.3,0.8-0.7,0.8C45.4,12.4,44.9,11.9,45,11.5
				L45,11.5z"/>
			<path class="st0" d="M47.7,11.4c0.4,0,0.8,0.4,0.8,0.7c0,0.4-0.5,0.9-0.8,0.9c-0.4,0-0.7-0.4-0.7-0.8
				C46.9,11.8,47.2,11.5,47.7,11.4L47.7,11.4z"/>
			<path class="st0" d="M7.1,28.4c0,0.4-0.3,0.7-0.8,0.7c-0.4,0-0.8-0.3-0.8-0.7c0-0.4,0.3-0.7,0.8-0.7C6.8,27.7,7.1,28,7.1,28.4
				L7.1,28.4z"/>
			<path class="st0" d="M13.3,20.8c-0.4,0-0.8-0.4-0.7-0.8c0.1-0.4,0.3-0.6,0.7-0.6c0.4,0,0.8,0.3,0.8,0.7
				C14.1,20.5,13.7,20.8,13.3,20.8L13.3,20.8z"/>
			<path class="st0" d="M60.6,20.3c0,0.4-0.3,0.7-0.7,0.8s-0.8-0.2-0.8-0.6s0.3-0.7,0.7-0.8C60.2,19.7,60.6,20,60.6,20.3L60.6,20.3z
				"/>
			<path class="st0" d="M10.8,22.2c-0.4,0-0.7-0.4-0.7-0.8c0-0.4,0.3-0.8,0.7-0.8c0.4,0,0.7,0.3,0.7,0.8
				C11.5,21.8,11.2,22.2,10.8,22.2z"/>
			<path class="st0" d="M22.3,14.4c0,0.4-0.4,0.6-0.9,0.6c-0.5,0-0.7-0.3-0.6-0.8c0.1-0.4,0.4-0.7,0.8-0.6
				C22,13.6,22.4,14.1,22.3,14.4z"/>
			<path class="st0" d="M24.2,15c0,0.4-0.4,0.7-0.8,0.7c-0.4,0-0.8-0.4-0.7-0.8c0-0.3,0.5-0.8,0.8-0.7C23.9,14.2,24.2,14.6,24.2,15z
				"/>
			<path class="st0" d="M26,12.8c0.4,0,0.7,0.4,0.8,0.8c0,0.4-0.2,0.7-0.6,0.8c-0.4,0.1-0.8-0.2-0.8-0.7
				C25.3,13.3,25.6,12.9,26,12.8z"/>
			<path class="st0" d="M29.3,12.4c0,0.4-0.4,0.7-0.8,0.6c-0.4,0-0.8-0.4-0.7-0.8c0-0.4,0.4-0.7,0.8-0.6
				C29.1,11.7,29.4,12,29.3,12.4L29.3,12.4z"/>
			<path class="st0" d="M33,10.9c0.4,0,0.7,0.3,0.7,0.8c0,0.4-0.3,0.8-0.7,0.8s-0.7-0.4-0.7-0.8C32.3,11.2,32.6,10.9,33,10.9
				L33,10.9z"/>
			<path class="st0" d="M19,14.9c0.5,0,0.8,0.2,0.8,0.7c0,0.4-0.3,0.8-0.7,0.9c-0.3,0-0.8-0.4-0.8-0.7C18.2,15.3,18.6,14.9,19,14.9z
				"/>
			<path class="st0" d="M24.1,12.2c0.4,0,0.7,0.3,0.7,0.8c0,0.4-0.4,0.8-0.7,0.8c-0.3,0-0.7-0.4-0.7-0.8
				C23.4,12.6,23.7,12.2,24.1,12.2z"/>
			<path class="st0" d="M61.1,23.8c-0.8-0.6-0.9-0.9-0.7-1.3c0.3-0.4,0.8-0.4,1.2,0C62,22.8,61.9,23.1,61.1,23.8L61.1,23.8z"/>
			<path class="st0" d="M19.2,17.5c0,0.4-0.4,0.7-0.8,0.7c-0.4,0-0.6-0.2-0.7-0.6c0-0.4,0.3-0.8,0.7-0.8
				C18.8,16.8,19.2,17.1,19.2,17.5L19.2,17.5z"/>
			<path class="st0" d="M45.2,14.2c-0.4,0-0.7-0.2-0.8-0.6c-0.1-0.4,0.3-0.8,0.6-0.8c0.4-0.1,0.8,0.2,0.8,0.6
				C45.9,13.8,45.6,14.1,45.2,14.2L45.2,14.2z"/>
			<path class="st0" d="M10.3,25.1c0,0.4-0.4,0.7-0.8,0.8c-0.4,0-0.8-0.3-0.8-0.7c0-0.4,0.4-0.7,0.8-0.7
				C10,24.5,10.2,24.8,10.3,25.1L10.3,25.1z"/>
			<path class="st0" d="M12.8,21.3c0.4,0,0.6,0.2,0.7,0.6c0.1,0.4-0.3,0.7-0.7,0.8s-0.7-0.2-0.7-0.6C11.9,21.7,12.3,21.3,12.8,21.3
				L12.8,21.3z"/>
			<path class="st0" d="M43.9,12.9c0,0.4-0.5,0.7-0.8,0.7c-0.4-0.1-0.7-0.3-0.7-0.7c0-0.4,0.4-0.8,0.7-0.8S43.9,12.5,43.9,12.9
				L43.9,12.9z"/>
			<path class="st0" d="M6.4,30.3c0,0.4-0.3,0.8-0.7,0.8c-0.3,0-0.7-0.4-0.7-0.8c0-0.4,0.3-0.7,0.8-0.7C6.2,29.6,6.4,29.9,6.4,30.3
				L6.4,30.3z"/>
			<path class="st0" d="M31.2,13c0,0.4-0.4,0.7-0.8,0.6c-0.5,0-0.6-0.4-0.6-0.7c0-0.3,0.2-0.7,0.7-0.7C30.9,12.3,31.2,12.6,31.2,13z
				"/>
			<path class="st0" d="M40.1,11.8c0,0.4-0.3,0.6-0.7,0.6c-0.4,0.1-0.7-0.4-0.7-0.8c0-0.5,0.3-0.8,0.8-0.7
				C39.9,10.9,40.1,11.3,40.1,11.8L40.1,11.8z"/>
			<path class="st0" d="M56.8,19c0.1,0.5-0.3,0.8-0.7,0.9c-0.4,0-0.7-0.1-0.8-0.5c-0.1-0.4,0.3-0.9,0.6-0.8
				C56.3,18.5,56.6,18.8,56.8,19z"/>
			<path class="st0" d="M63.2,25.4c-0.1,0.5-0.3,0.8-0.8,0.8c-0.4,0-0.8-0.3-0.7-0.8c0-0.4,0.4-0.7,0.8-0.6
				C62.8,24.9,63,25.2,63.2,25.4z"/>
			<path class="st0" d="M21.6,16.3c0,0.4-0.3,0.6-0.6,0.7c-0.4,0.1-0.8-0.3-0.8-0.7c0-0.4,0.2-0.7,0.6-0.7
				C21.2,15.4,21.6,15.8,21.6,16.3z"/>
			<path class="st0" d="M6.3,26.5c0-0.4,0.4-0.8,0.7-0.8c0.3,0,0.7,0.4,0.7,0.8c0,0.4-0.3,0.7-0.7,0.8C6.6,27.2,6.3,26.9,6.3,26.5z"
				/>
			<path class="st0" d="M16,20.7c0,0.4-0.3,0.7-0.8,0.7c-0.4,0-0.7-0.3-0.7-0.6c0-0.3,0.3-0.6,0.6-0.7C15.5,19.9,15.9,20.3,16,20.7
				L16,20.7z"/>
			<path class="st0" d="M50.9,14.7c0.4,0,0.7,0.3,0.7,0.8c0,0.4-0.3,0.6-0.7,0.6s-0.7-0.2-0.7-0.6C50.2,15,50.5,14.6,50.9,14.7z"/>
			<path class="st0" d="M64.4,28c0,0.4-0.4,0.7-0.7,0.6c-0.4-0.1-0.6-0.3-0.6-0.7c0-0.4,0.3-0.6,0.7-0.7
				C64.1,27.2,64.4,27.6,64.4,28L64.4,28z"/>
			<path class="st0" d="M49.7,14.8c-0.1,0.4-0.2,0.6-0.7,0.6c-0.4,0-0.8-0.4-0.8-0.7c0-0.4,0.2-0.6,0.7-0.6
				C49.3,14.1,49.7,14.4,49.7,14.8L49.7,14.8z"/>
			<path class="st0" d="M15.9,18.1c0.4,0,0.7,0.2,0.7,0.6s-0.3,0.8-0.7,0.8c-0.4,0-0.7-0.3-0.7-0.8C15.2,18.3,15.5,18.1,15.9,18.1z"
				/>
			<path class="st0" d="M40.7,14.9c-0.4,0-0.7-0.4-0.7-0.8c0-0.4,0.3-0.5,0.6-0.5c0.4,0,0.8,0.3,0.7,0.7
				C41.3,14.7,41.1,14.9,40.7,14.9L40.7,14.9z"/>
			<path class="st0" d="M5.2,31.5c0.4,0,0.6,0.3,0.6,0.7c0,0.4-0.3,0.7-0.8,0.7c-0.4,0-0.6-0.2-0.6-0.6C4.4,31.8,4.8,31.5,5.2,31.5
				L5.2,31.5z"/>
			<path class="st0" d="M20.5,17.4c0.1,0.2,0.4,0.4,0.5,0.6c0.1,0.3-0.4,0.8-0.7,0.8c-0.3,0-0.6-0.3-0.6-0.7
				C19.7,17.8,20,17.4,20.5,17.4L20.5,17.4z"/>
			<path class="st0" d="M59.3,23c-0.4,0-0.8-0.3-0.8-0.7c0-0.4,0.2-0.7,0.7-0.7c0.4,0,0.6,0.2,0.7,0.6C59.9,22.7,59.7,23,59.3,23
				L59.3,23z"/>
			<path class="st0" d="M51,17.2c0,0.4-0.2,0.6-0.6,0.7c-0.4,0.1-0.7-0.2-0.7-0.6c0-0.4,0.2-0.7,0.6-0.7C50.6,16.5,51,16.9,51,17.2z
				"/>
			<path class="st0" d="M9,26.4c0.4,0,0.6,0.3,0.6,0.7c0,0.4-0.2,0.7-0.6,0.7c-0.4,0-0.8-0.3-0.8-0.8C8.2,26.7,8.6,26.4,9,26.4z"/>
			<path class="st0" d="M27.9,13.6c0.4,0,0.7,0.2,0.7,0.6c0,0.4-0.2,0.7-0.6,0.7c-0.4,0.1-0.8-0.3-0.8-0.7
				C27.3,13.9,27.5,13.6,27.9,13.6L27.9,13.6z"/>
			<path class="st0" d="M65,31.2c-0.3,0-0.7-0.3-0.7-0.7c0-0.4,0.3-0.6,0.7-0.6c0.4,0,0.7,0.3,0.7,0.7C65.7,30.9,65.4,31.2,65,31.2
				L65,31.2z"/>
			<path class="st0" d="M5.8,38.5c0,0.3-0.3,0.8-0.6,0.7c-0.2-0.1-0.5-0.3-0.6-0.5c-0.1-0.3,0.2-0.7,0.6-0.7
				C5.4,37.9,5.8,38.2,5.8,38.5z"/>
			<path class="st0" d="M26.1,15.8c-0.2,0.1-0.4,0.4-0.7,0.5c-0.4,0.1-0.7-0.4-0.6-0.8c0-0.4,0.3-0.5,0.6-0.5
				C25.8,14.9,26.1,15.2,26.1,15.8z"/>
			<path class="st0" d="M29.7,14.2c0.5,0,0.8,0.4,0.8,0.8c0,0.3-0.4,0.7-0.7,0.7c-0.3,0-0.7-0.5-0.6-0.8
				C29.3,14.6,29.6,14.3,29.7,14.2L29.7,14.2z"/>
			<path class="st0" d="M39.5,13.6c-0.1,0.4-0.3,0.6-0.8,0.6c-0.4,0-0.6-0.3-0.6-0.7c0-0.4,0.2-0.7,0.7-0.7
				C39.1,12.8,39.5,13.3,39.5,13.6L39.5,13.6z"/>
			<path class="st0" d="M61.8,26.7c0.4,0,0.7,0.2,0.7,0.6c0.1,0.3-0.2,0.7-0.6,0.7c-0.3,0-0.7-0.2-0.7-0.6
				C61.1,27,61.4,26.8,61.8,26.7z"/>
			<path class="st0" d="M8.3,31c0,0.4-0.3,0.8-0.6,0.7c-0.4,0-0.6-0.3-0.7-0.7c-0.1-0.3,0.3-0.7,0.6-0.7C8,30.2,8.3,30.6,8.3,31z"/>
			<path class="st0" d="M18.4,19.5c0,0.4-0.3,0.6-0.8,0.5c-0.4-0.1-0.7-0.4-0.6-0.7c0.2-0.2,0.5-0.5,0.8-0.5
				C18.2,18.7,18.5,19.1,18.4,19.5z"/>
			<path class="st0" d="M12.8,23.9c0,0.4-0.2,0.6-0.6,0.7c-0.4,0-0.7-0.2-0.7-0.6c-0.1-0.4,0.3-0.8,0.7-0.8
				C12.5,23.2,12.8,23.5,12.8,23.9z"/>
			<path class="st0" d="M43.2,14.9c0,0.4-0.3,0.6-0.7,0.6c-0.4-0.1-0.6-0.3-0.6-0.7c0-0.4,0.3-0.6,0.7-0.6
				C43,14.2,43.3,14.5,43.2,14.9z"/>
			<path class="st0" d="M31.7,13.6c0-0.4,0.2-0.7,0.6-0.8c0.3-0.1,0.8,0.4,0.8,0.7c0,0.4-0.3,0.6-0.7,0.6C32,14.2,31.7,14,31.7,13.6
				z"/>
			<path class="st0" d="M54.1,17.9c0.4,0,0.7,0.3,0.6,0.7c0,0.4-0.3,0.7-0.7,0.6c-0.4,0-0.6-0.3-0.6-0.7
				C53.4,18.1,53.7,17.9,54.1,17.9L54.1,17.9z"/>
			<path class="st0" d="M14.9,23.2c-0.7,0-1.1-0.3-1-0.6c0.1-0.3,0.4-0.5,0.7-0.6c0.3-0.1,0.6,0.3,0.6,0.7
				C15.2,23,15,23.2,14.9,23.2L14.9,23.2z"/>
			<path class="st0" d="M12,25.9c0,0.3-0.2,0.5-0.6,0.5c-0.4,0-0.8-0.3-0.7-0.5c0.1-0.3,0.4-0.5,0.7-0.7C11.7,25.1,12,25.5,12,25.9z
				"/>
			<path class="st0" d="M57.3,21.1c0.4,0,0.6,0.3,0.6,0.7c0,0.4-0.3,0.5-0.6,0.6c-0.3,0-0.7-0.4-0.7-0.7C56.6,21.3,57,21,57.3,21.1z
				"/>
			<path class="st0" d="M9,29c0,0.3-0.3,0.6-0.7,0.6c-0.4,0-0.6-0.2-0.6-0.5c0-0.4,0.1-0.7,0.5-0.8C8.5,28.2,9,28.7,9,29L9,29z"/>
			<path class="st0" d="M17.2,22.1c-0.7-0.5-0.8-0.8-0.5-1.2c0.2-0.3,0.6-0.3,0.9,0C17.9,21.3,17.9,21.4,17.2,22.1z"/>
			<path class="st0" d="M51.9,17.3c0.6,0,0.9,0.1,0.9,0.5c0,0.3-0.3,0.7-0.6,0.7c-0.3,0-0.8-0.4-0.7-0.7
				C51.6,17.6,51.8,17.4,51.9,17.3z"/>
			<path class="st0" d="M22.9,17.5c-0.4,0-0.8-0.5-0.7-0.8c0.1-0.4,0.4-0.5,0.8-0.5c0.4,0,0.5,0.3,0.5,0.6
				C23.5,17.2,23.2,17.6,22.9,17.5z"/>
			<path class="st0" d="M48.4,16c0.3,0,0.7,0.4,0.6,0.7c-0.1,0.4-0.3,0.6-0.7,0.6c-0.4,0-0.5-0.3-0.5-0.6C47.7,16.2,48,16,48.4,16z"
				/>
			<path class="st0" d="M7.7,32.7c-0.1,0.6-0.4,0.8-0.7,0.8c-0.2,0-0.5-0.3-0.6-0.6c-0.1-0.4,0.3-0.7,0.8-0.6
				C7.4,32.4,7.6,32.6,7.7,32.7L7.7,32.7z"/>
			<path class="st0" d="M5.8,36.1c0.4,0,0.7,0.3,0.6,0.7c-0.1,0.2-0.3,0.5-0.5,0.6c-0.3,0.1-0.7-0.3-0.7-0.6
				C5.1,36.4,5.5,36.1,5.8,36.1z"/>
			<path class="st0" d="M6.4,35.4c-0.4,0-0.7-0.3-0.6-0.7s0.3-0.5,0.7-0.5c0.4,0,0.6,0.2,0.6,0.6C7.1,35,6.7,35.4,6.4,35.4L6.4,35.4
				z"/>
			<path class="st0" d="M47,16c0,0.4-0.3,0.7-0.7,0.7c-0.3,0-0.7-0.4-0.7-0.7c0.1-0.4,0.3-0.6,0.8-0.6C46.9,15.5,47,15.7,47,16z"/>
			<path class="st0" d="M45.1,15.5c0,0.4-0.3,0.5-0.7,0.5c-0.4,0-0.7-0.4-0.6-0.7c0.1-0.2,0.4-0.5,0.6-0.5
				C44.8,14.7,45.2,15.1,45.1,15.5z"/>
			<path class="st0" d="M60.7,25.5c-0.5,0-0.9-0.2-0.9-0.6c0-0.4,0.3-0.7,0.7-0.7c0.4,0,0.7,0.4,0.6,0.7
				C61.1,25.2,60.8,25.4,60.7,25.5z"/>
			<path class="st0" d="M28.2,16.1c-0.4,0.3-0.6,0.6-0.8,0.7c-0.4,0.1-0.7-0.2-0.7-0.6c0-0.4,0.2-0.7,0.5-0.6
				C27.5,15.6,27.8,15.9,28.2,16.1L28.2,16.1z"/>
			<path class="st0" d="M32.3,15.2c0,0.5-0.3,1-0.6,0.9c-0.3-0.1-0.5-0.3-0.6-0.6c-0.1-0.3,0.3-0.7,0.6-0.7
				C32,15,32.2,15.2,32.3,15.2z"/>
			<path class="st0" d="M11.4,27.5c0,0.5-0.4,0.9-0.7,0.8c-0.2-0.1-0.5-0.4-0.6-0.6c-0.1-0.3,0.4-0.7,0.7-0.6
				C11.1,27.2,11.3,27.4,11.4,27.5L11.4,27.5z"/>
			<path class="st0" d="M22.2,19.4c-0.6-0.5-0.8-0.7-0.5-1.1c0.2-0.3,0.6-0.3,0.9,0C23,18.6,22.9,18.8,22.2,19.4L22.2,19.4z"/>
			<path class="st0" d="M59.2,24.5c-0.2,0.1-0.4,0.3-0.6,0.4c-0.4,0.1-0.7-0.3-0.7-0.6c0-0.4,0.3-0.5,0.6-0.6
				C58.9,23.6,59.3,24,59.2,24.5z"/>
			<path class="st0" d="M49.6,18.4c0.3,0.3,0.5,0.5,0.6,0.7c0.1,0.3-0.1,0.6-0.5,0.6c-0.4,0-0.8-0.3-0.7-0.6
				C49.1,19,49.3,18.8,49.6,18.4L49.6,18.4z"/>
			<path class="st0" d="M14.6,24.4c-0.1,0.5-0.4,0.8-0.8,0.7c-0.2-0.1-0.4-0.4-0.5-0.6c0-0.3,0.5-0.7,0.7-0.5
				C14.4,24,14.5,24.3,14.6,24.4L14.6,24.4z"/>
			<path class="st0" d="M25.4,17.5c0,0.4-0.4,0.6-0.7,0.6c-0.4-0.1-0.4-0.4-0.4-0.7c0-0.3,0.2-0.6,0.5-0.6
				C25.1,16.8,25.4,17.1,25.4,17.5z"/>
			<path class="st0" d="M63.8,30c-0.2,0.1-0.3,0.4-0.6,0.5c-0.3,0.1-0.6,0-0.7-0.4c0-0.4,0.1-0.6,0.5-0.7S63.7,29.5,63.8,30L63.8,30
				z"/>
			<path class="st0" d="M55.5,20.5c0.2,0,0.5,0.2,0.5,0.6c0,0.4-0.2,0.5-0.6,0.6c-0.4,0-0.7-0.2-0.7-0.6
				C54.7,20.7,54.9,20.5,55.5,20.5z"/>
			<path class="st0" d="M54.3,20.4c-0.3,0.3-0.5,0.6-0.8,0.7c-0.3,0.1-0.7-0.2-0.7-0.6c0-0.4,0.2-0.7,0.5-0.6
				C53.7,19.9,53.9,20.1,54.3,20.4L54.3,20.4z"/>
			<path class="st0" d="M43.8,18.1c-0.3-0.3-0.5-0.5-0.6-0.8c-0.1-0.3,0.3-0.6,0.7-0.5c0.3,0.1,0.6,0.3,0.5,0.6
				C44.4,17.6,44.1,17.8,43.8,18.1z"/>
			<path class="st0" d="M42.7,16.7c-0.3,0.3-0.5,0.5-0.7,0.6c-0.3,0.1-0.6-0.2-0.6-0.5s0.3-0.8,0.6-0.7
				C42.2,16.2,42.4,16.4,42.7,16.7L42.7,16.7z"/>
			<path class="st0" d="M56.8,22.8c0.2,0.4,0.6,0.6,0.5,0.8c0,0.2-0.3,0.5-0.6,0.6c-0.3,0.1-0.7-0.4-0.6-0.7
				C56.2,23.2,56.5,23.1,56.8,22.8z"/>
			<path class="st0" d="M65,37.6c-0.5-0.3-0.9-0.5-0.4-1c0.3-0.3,0.6-0.3,0.9,0C65.9,37.1,65.5,37.3,65,37.6z"/>
			<path class="st0" d="M19.9,21.9c-0.3,0.3-0.6,0.6-0.8,0.6c-0.2,0-0.4-0.4-0.6-0.6c0.2-0.2,0.4-0.5,0.6-0.5
				C19.3,21.4,19.5,21.7,19.9,21.9z"/>
			<path class="st0" d="M65.1,32.5c-0.2,0.1-0.4,0.4-0.7,0.5c-0.2,0-0.5-0.3-0.5-0.5s0.2-0.5,0.4-0.7C64.5,31.7,65,32.1,65.1,32.5
				L65.1,32.5z"/>
			<path class="st0" d="M20.3,19.8c0,0.5-0.1,0.8-0.5,0.8c-0.4,0-0.6-0.1-0.7-0.5c-0.1-0.3,0.3-0.7,0.6-0.7
				C19.9,19.5,20.1,19.8,20.3,19.8L20.3,19.8z"/>
			<path class="st0" d="M10.8,29.5c0,0.5-0.3,0.8-0.7,0.8c-0.2,0-0.5-0.2-0.5-0.4c-0.1-0.3,0.2-0.7,0.6-0.7
				C10.4,29.2,10.7,29.4,10.8,29.5L10.8,29.5z"/>
			<path class="st0" d="M51.6,19.2c0.4,0,0.6,0.3,0.5,0.6c-0.1,0.2-0.3,0.6-0.5,0.6c-0.3,0.1-0.5-0.2-0.6-0.6
				C51,19.5,51.2,19.2,51.6,19.2L51.6,19.2z"/>
			<path class="st0" d="M9,34.2c-0.4-0.3-0.9-0.5-0.4-1C8.8,32.9,9,32.8,9.3,33C9.7,33.3,9.6,33.6,9,34.2L9,34.2z"/>
			<path class="st0" d="M64.5,34.3c-0.3,0.3-0.5,0.6-0.7,0.6c-0.3,0.1-0.6-0.3-0.5-0.6c0-0.2,0.3-0.6,0.5-0.6
				C64,33.7,64.2,34,64.5,34.3L64.5,34.3z"/>
			<path class="st0" d="M6.4,41.9c-0.2-0.3-0.5-0.5-0.5-0.8c0-0.3,0.3-0.5,0.6-0.5c0.4,0,0.6,0.2,0.6,0.6C7,41.4,6.7,41.6,6.4,41.9z
				"/>
			<path class="st0" d="M22.3,20.7c-0.4,0.2-0.6,0.5-0.8,0.5c-0.2,0-0.5-0.4-0.5-0.6c0-0.2,0.4-0.5,0.5-0.5
				C21.8,20.1,22,20.4,22.3,20.7L22.3,20.7z"/>
			<path class="st0" d="M29.3,17.5c-0.3-0.3-0.6-0.4-0.7-0.7c-0.1-0.3,0.2-0.6,0.6-0.6c0.3,0,0.6,0.2,0.6,0.5
				C29.8,17,29.6,17.2,29.3,17.5L29.3,17.5z"/>
			<path class="st0" d="M31.1,18.3c-0.2-0.5-0.4-0.7-0.4-0.9c0-0.2,0.3-0.5,0.5-0.5c0.4-0.1,0.6,0.2,0.6,0.6
				C31.7,17.6,31.4,17.9,31.1,18.3z"/>
			<path class="st0" d="M60.4,29.2c0.3-0.2,0.6-0.5,0.8-0.5c0.3,0,0.6,0.3,0.5,0.6c-0.1,0.2-0.4,0.5-0.6,0.5
				C60.9,29.8,60.7,29.5,60.4,29.2L60.4,29.2z"/>
			<path class="st0" d="M26.6,18.9c-0.2-0.4-0.5-0.6-0.5-0.9c0-0.4,0.2-0.6,0.6-0.5c0.3,0,0.6,0.3,0.5,0.6
				C27.1,18.3,26.9,18.5,26.6,18.9L26.6,18.9z"/>
			<path class="st0" d="M45.9,18.6c-0.3-0.3-0.7-0.5-0.7-0.7c0-0.2,0.3-0.5,0.5-0.6s0.6,0.3,0.6,0.5C46.4,18,46.1,18.3,45.9,18.6z"
				/>
			<path class="st0" d="M47.7,17.8c0.3,0.3,0.6,0.5,0.6,0.8c0.1,0.3-0.2,0.6-0.5,0.6c-0.2,0-0.6-0.3-0.6-0.5
				C47.1,18.4,47.4,18.1,47.7,17.8z"/>
			<path class="st0" d="M55.3,22.9c0,0.4-0.2,0.6-0.5,0.6s-0.6-0.2-0.5-0.6c0-0.2,0.3-0.4,0.5-0.5C55,22.3,55.3,22.5,55.3,22.9
				L55.3,22.9z"/>
			<path class="st0" d="M16.4,22.7c0.6,0,0.8,0.3,0.7,0.6c-0.1,0.2-0.3,0.4-0.5,0.5c-0.4,0.1-0.6-0.2-0.6-0.5
				C16,22.8,16.2,22.7,16.4,22.7L16.4,22.7z"/>
			<path class="st0" d="M58,25.6c0.4,0,0.6,0.2,0.5,0.6c0,0.2-0.3,0.5-0.5,0.5c-0.3,0.1-0.6-0.1-0.6-0.5
				C57.4,25.8,57.6,25.6,58,25.6z"/>
			<path class="st0" d="M13.9,26.5c0,0.4-0.3,0.6-0.6,0.5c-0.2-0.1-0.4-0.3-0.5-0.5c-0.1-0.3,0.2-0.6,0.6-0.6
				C13.8,25.9,13.9,26.2,13.9,26.5L13.9,26.5z"/>
			<path class="st0" d="M7.9,39.3c-0.4,0.2-0.6,0.4-0.8,0.5c-0.4,0-0.5-0.3-0.5-0.6c0-0.4,0.3-0.5,0.7-0.4C7.4,38.8,7.6,39,7.9,39.3
				L7.9,39.3z"/>
			<path class="st0" d="M10.1,31.5c0,0.4-0.2,0.6-0.6,0.5c-0.2,0-0.5-0.2-0.5-0.4C8.9,31.3,9.2,31,9.5,31
				C9.9,30.9,10.1,31.2,10.1,31.5L10.1,31.5z"/>
			<path class="st0" d="M16.7,25c-0.3,0.3-0.5,0.5-0.7,0.6c-0.3,0.1-0.7-0.2-0.6-0.4c0.1-0.2,0.3-0.5,0.4-0.6
				C16,24.6,16.3,24.8,16.7,25z"/>
			<path class="st0" d="M39.5,16.5c0-0.3,0-0.6,0.1-0.8c0.1-0.2,0.5-0.3,0.6-0.3c0.2,0.1,0.4,0.4,0.4,0.6c0,0.2-0.3,0.4-0.5,0.5
				C39.9,16.6,39.7,16.5,39.5,16.5L39.5,16.5L39.5,16.5z"/>
			<path class="st0" d="M60,25.9c0.2,0.4,0.4,0.7,0.4,0.9c0,0.1-0.3,0.4-0.5,0.4c-0.3,0.1-0.6-0.1-0.5-0.5
				C59.4,26.5,59.6,26.3,60,25.9z"/>
			<path class="st0" d="M5.3,43.6c0-0.2-0.1-0.5,0.1-0.7c0.1-0.2,0.4-0.3,0.6-0.3c0.2,0,0.4,0.4,0.4,0.5s-0.2,0.4-0.4,0.5
				C5.8,43.6,5.5,43.5,5.3,43.6L5.3,43.6L5.3,43.6z"/>
			<path class="st0" d="M62.4,32.3c-0.4,0-0.6-0.3-0.5-0.6c0.1-0.2,0.3-0.4,0.5-0.5c0.3-0.1,0.6,0.2,0.6,0.6
				C63,32.2,62.8,32.3,62.4,32.3L62.4,32.3z"/>
			<path class="st0" d="M13.5,28.3c-0.4,0.2-0.5,0.5-0.7,0.5c-0.4,0.1-0.6-0.1-0.6-0.5c0-0.2,0.3-0.5,0.4-0.5
				C12.9,27.9,13.1,28.1,13.5,28.3z"/>
			<path class="st0" d="M23.5,19.4c0.2-0.5,0.5-0.8,1-0.3c0.3,0.3,0.3,0.6,0,0.8C24,20.2,23.8,19.7,23.5,19.4z"/>
			<path class="st0" d="M19.1,23.9c-0.3,0.2-0.5,0.6-0.6,0.5c-0.2-0.1-0.6-0.3-0.6-0.5c0-0.2,0.3-0.4,0.5-0.6
				C18.6,23.5,18.8,23.6,19.1,23.9z"/>
			<path class="st0" d="M8.4,37.3c-0.4,0.2-0.6,0.5-0.8,0.5c-0.2,0-0.4-0.3-0.5-0.5c-0.1-0.3,0.2-0.6,0.6-0.5
				C7.9,36.9,8.1,37.1,8.4,37.3L8.4,37.3z"/>
			<path class="st0" d="M59.3,27.8c0.2,0.4,0.5,0.7,0.5,0.9c0,0.1-0.3,0.4-0.5,0.4c-0.2,0-0.5-0.3-0.5-0.4
				C58.8,28.4,59,28.2,59.3,27.8L59.3,27.8z"/>
			<path class="st0" d="M63.1,35.6c0.2,0.3,0.5,0.5,0.5,0.7c0,0.2-0.2,0.5-0.4,0.5c-0.2,0-0.6-0.2-0.6-0.4
				C62.6,36.2,62.9,36,63.1,35.6L63.1,35.6z"/>
			<path class="st0" d="M58,28.1c-0.3,0.2-0.5,0.4-0.7,0.4c-0.3,0-0.5-0.2-0.4-0.5s0.2-0.5,0.5-0.4C57.6,27.6,57.8,27.9,58,28.1z"/>
			<path class="st0" d="M12.1,29.5c0.3,0.3,0.6,0.5,0.6,0.7c-0.1,0.2-0.3,0.4-0.5,0.7c-0.2-0.1-0.5-0.3-0.5-0.5
				C11.7,30.1,11.9,29.9,12.1,29.5L12.1,29.5z"/>
			<path class="st0" d="M61.3,31.3c-0.4,0.2-0.6,0.4-0.9,0.4c-0.1,0-0.3-0.4-0.3-0.6c0-0.3,0.3-0.5,0.5-0.4
				C60.8,30.8,61,31,61.3,31.3L61.3,31.3z"/>
			<path class="st0" d="M52.9,23.2c-0.3-0.4-0.5-0.6-0.6-0.8c-0.1-0.3,0.2-0.5,0.5-0.5c0.2,0,0.6,0.2,0.6,0.4
				C53.4,22.5,53.2,22.7,52.9,23.2L52.9,23.2z"/>
			<path class="st0" d="M7.1,44.9c0.3,0.2,0.5,0.4,0.6,0.6c0.1,0.3-0.3,0.7-0.5,0.6c-0.2-0.1-0.4-0.3-0.5-0.5
				C6.6,45.4,6.9,45.2,7.1,44.9z"/>
			<path class="st0" d="M56,24.9c0.2,0.2,0.6,0.4,0.6,0.5c-0.1,0.2-0.3,0.6-0.5,0.6c-0.3,0.1-0.6-0.2-0.5-0.5
				C55.6,25.3,55.8,25.1,56,24.9L56,24.9z"/>
			<path class="st0" d="M29.3,18.7c-0.3,0.2-0.5,0.5-0.7,0.4c-0.2,0-0.4-0.3-0.5-0.5c-0.1-0.2,0.3-0.6,0.6-0.5
				C28.9,18.2,29,18.5,29.3,18.7z"/>
			<path class="st0" d="M43.9,19.3c-0.3,0.2-0.5,0.5-0.6,0.5c-0.2,0-0.5-0.2-0.5-0.4c-0.1-0.2,0.3-0.6,0.5-0.6
				C43.5,18.8,43.7,19.1,43.9,19.3z"/>
			<path class="st0" d="M26.8,20.1c-0.4,0.2-0.6,0.4-0.9,0.4c-0.1,0-0.3-0.4-0.3-0.6c0-0.3,0.2-0.5,0.5-0.4
				C26.4,19.6,26.5,19.8,26.8,20.1L26.8,20.1z"/>
			<path class="st0" d="M51.7,21.7c-0.3,0.2-0.5,0.5-0.7,0.5c-0.2,0-0.5-0.2-0.5-0.4c0-0.2,0.2-0.5,0.4-0.5
				C51.1,21.2,51.3,21.5,51.7,21.7z"/>
			<path class="st0" d="M7.6,35.5c0.3-0.3,0.4-0.5,0.6-0.7c0.4,0.1,0.7,0.3,0.6,0.7c0,0.2-0.3,0.4-0.4,0.4
				C8.2,35.8,7.9,35.6,7.6,35.5z"/>
			<path class="st0" d="M23.4,22c-0.1-0.2-0.3-0.4-0.4-0.7c0-0.4,0.2-0.6,0.5-0.6c0.2,0,0.5,0.2,0.4,0.3c0,0.3-0.2,0.5-0.3,0.8
				C23.6,22,23.5,22,23.4,22z"/>
			<path class="st0" d="M49.7,21.1c-0.3,0.2-0.5,0.5-0.7,0.5c-0.2,0-0.5-0.3-0.5-0.4c0-0.2,0.3-0.5,0.4-0.5
				C49.2,20.6,49.4,20.9,49.7,21.1L49.7,21.1z"/>
			<path class="st0" d="M47,21.2c-0.2-0.3-0.5-0.5-0.5-0.7c0-0.3,0.3-0.5,0.6-0.5c0.3,0,0.4,0.3,0.3,0.6
				C47.5,20.8,47.2,20.9,47,21.2z"/>
			<path class="st0" d="M15.3,27.7c-0.2-0.2-0.4-0.4-0.7-0.6c0.2-0.2,0.4-0.4,0.5-0.4c0.2,0,0.4,0.1,0.5,0.2
				C15.9,27.2,15.7,27.5,15.3,27.7z"/>
			<path class="st0" d="M64.4,39.5c-0.2-0.3-0.5-0.6-0.5-0.8c0-0.1,0.3-0.4,0.5-0.4c0.2,0,0.4,0.3,0.5,0.5
				C64.9,38.9,64.7,39.1,64.4,39.5z"/>
			<path class="st0" d="M61.7,34.4c-0.1-0.3-0.3-0.5-0.3-0.7c0-0.2,0.2-0.4,0.4-0.4c0.2-0.1,0.7,0.4,0.5,0.6
				C62.3,34,62,34.1,61.7,34.4z"/>
			<path class="st0" d="M44.5,20c0.3-0.2,0.4-0.5,0.6-0.5c0.3-0.1,0.5,0.1,0.5,0.4c0,0.2-0.2,0.5-0.4,0.6
				C45.1,20.4,44.8,20.2,44.5,20z"/>
			<path class="st0" d="M10.8,34.7c-0.2-0.3-0.4-0.5-0.4-0.7c0-0.1,0.3-0.4,0.4-0.4c0.2,0.1,0.4,0.3,0.6,0.5
				C11.2,34.3,11,34.5,10.8,34.7z"/>
			<path class="st0" d="M12.1,32.3c-0.3,0.2-0.5,0.4-0.7,0.3c-0.2,0-0.4-0.3-0.4-0.5c0-0.4,0.4-0.5,0.7-0.4
				C11.8,31.9,11.9,32.1,12.1,32.3z"/>
			<path class="st0" d="M63.2,38.2c-0.3,0.2-0.5,0.4-0.7,0.5c-0.1,0-0.5-0.3-0.4-0.4c0.1-0.2,0.2-0.5,0.4-0.5
				C62.6,37.7,62.9,38,63.2,38.2L63.2,38.2z"/>
			<path class="st0" d="M17.9,26.4c-0.2-0.2-0.5-0.4-0.5-0.6c0-0.2,0.3-0.5,0.4-0.5c0.2,0,0.5,0.2,0.5,0.4
				C18.4,25.9,18.1,26.1,17.9,26.4L17.9,26.4z"/>
			<path class="st0" d="M10.3,37.9c-0.3,0.2-0.5,0.5-0.6,0.5c-0.2,0-0.4-0.3-0.5-0.5c0-0.1,0.2-0.4,0.4-0.4
				C9.7,37.5,9.9,37.7,10.3,37.9z"/>
			<path class="st0" d="M9.7,39.9C9.4,40,9.1,40.3,9,40.3s-0.4-0.3-0.4-0.5c0-0.2,0.3-0.4,0.5-0.4S9.4,39.6,9.7,39.9z"/>
			<path class="st0" d="M64.5,40.7c-0.3,0.2-0.5,0.4-0.7,0.4c-0.2,0-0.3-0.2-0.5-0.3c0.1-0.2,0.3-0.5,0.4-0.5
				C64,40.3,64.2,40.5,64.5,40.7L64.5,40.7z"/>
			<path class="st0" d="M22.3,23.3c0.3-0.2,0.4-0.5,0.6-0.5c0.1,0,0.5,0.2,0.4,0.3c0,0.2-0.2,0.5-0.4,0.6
				C22.9,23.7,22.6,23.5,22.3,23.3L22.3,23.3z"/>
			<path class="st0" d="M14.6,30.9c-0.3,0.2-0.5,0.4-0.7,0.4c-0.1,0-0.3-0.3-0.3-0.5c0-0.3,0.2-0.5,0.5-0.4
				C14.3,30.5,14.4,30.7,14.6,30.9L14.6,30.9z"/>
			<path class="st0" d="M8.4,47.6c0.4,0.3,0.7,0.5,0.3,0.9c-0.1,0.1-0.5,0.1-0.6,0C7.8,48.1,8,47.8,8.4,47.6L8.4,47.6z"/>
			<path class="st0" d="M54,24.3c0.2,0.3,0.5,0.4,0.5,0.6c0,0.1-0.3,0.4-0.5,0.5c-0.1,0-0.4-0.2-0.4-0.4
				C53.7,24.8,53.9,24.6,54,24.3L54,24.3z"/>
			<path class="st0" d="M28.6,20.7c-0.3,0.2-0.4,0.4-0.6,0.4c-0.3,0.1-0.5-0.1-0.5-0.5c0-0.2,0.3-0.5,0.4-0.4
				C28.1,20.2,28.3,20.5,28.6,20.7z"/>
			<path class="st0" d="M21.7,22.6c-0.4,0.2-0.6,0.3-0.8,0.3c-0.1,0-0.4-0.2-0.4-0.4c-0.1-0.3,0.2-0.5,0.5-0.4
				C21.2,22.2,21.4,22.4,21.7,22.6L21.7,22.6z"/>
			<path class="st0" d="M46.5,22.9c-0.3-0.3-0.6-0.6-0.2-0.9c0.1-0.1,0.4,0,0.5,0.1C47.2,22.5,46.8,22.7,46.5,22.9z"/>
			<path class="st0" d="M15.3,29c-0.3,0.2-0.5,0.4-0.7,0.4c-0.1,0-0.4-0.2-0.5-0.3c-0.1-0.2,0.2-0.6,0.6-0.5
				C14.9,28.6,15.1,28.8,15.3,29z"/>
			<path class="st0" d="M25.4,22.5c-0.1-0.3-0.3-0.5-0.3-0.7c0-0.1,0.2-0.2,0.4-0.4c0.1,0.2,0.3,0.4,0.4,0.6
				C25.9,22.1,25.6,22.3,25.4,22.5L25.4,22.5z"/>
			<path class="st0" d="M13.4,34.8c-0.3,0.2-0.4,0.4-0.6,0.4c-0.1,0-0.3-0.3-0.3-0.4c0-0.1,0.3-0.4,0.4-0.3
				C13,34.3,13.2,34.6,13.4,34.8L13.4,34.8z"/>
			<path class="st0" d="M59.2,30.6c-0.3,0.2-0.5,0.4-0.7,0.4c-0.1,0-0.3-0.3-0.3-0.5c0-0.3,0.2-0.5,0.5-0.4
				C58.9,30.2,59,30.4,59.2,30.6z"/>
			<path class="st0" d="M63.2,42c0.2,0.3,0.3,0.5,0.3,0.6c0,0.2-0.2,0.3-0.3,0.5c-0.2-0.2-0.4-0.3-0.4-0.5
				C62.8,42.5,63,42.3,63.2,42z"/>
			<path class="st0" d="M31.1,19.4c-0.3,0.1-0.5,0.3-0.8,0.3c-0.1,0-0.3-0.3-0.4-0.5c0.2-0.1,0.4-0.3,0.6-0.4
				C30.7,18.9,30.9,19.2,31.1,19.4z"/>
			<path class="st0" d="M61.8,35.6c-0.2,0.2-0.4,0.4-0.5,0.4c-0.2,0-0.3-0.2-0.5-0.3c0.2-0.2,0.3-0.4,0.5-0.5
				C61.4,35.2,61.6,35.4,61.8,35.6z"/>
			<path class="st0" d="M7.7,43.1c0.2,0.3,0.4,0.4,0.5,0.6c0,0.1-0.2,0.4-0.3,0.4c-0.2,0-0.4-0.2-0.6-0.3
				C7.4,43.6,7.5,43.4,7.7,43.1L7.7,43.1z"/>
			<path class="st0" d="M48.4,22.5c0.4,0.2,0.6,0.5,0.3,0.8c-0.2,0.2-0.5,0.2-0.6,0C47.7,22.8,48.2,22.7,48.4,22.5z"/>
			<path class="st0" d="M52.8,24.2c-0.3,0.2-0.4,0.4-0.6,0.5c-0.1,0-0.3-0.2-0.4-0.4c0-0.3,0.1-0.5,0.5-0.5
				C52.4,23.8,52.6,24,52.8,24.2z"/>
			<path class="st0" d="M60.5,33.1c-0.2,0.2-0.3,0.4-0.5,0.4c-0.1,0-0.4-0.2-0.4-0.3c-0.1-0.3,0.1-0.5,0.4-0.5
				C60.1,32.7,60.2,32.9,60.5,33.1z"/>
			<path class="st0" d="M10.2,36.5c-0.4-0.2-0.6-0.5-0.3-0.9c0.1-0.1,0.5-0.1,0.6,0C10.8,36,10.7,36.3,10.2,36.5z"/>
			<path class="st0" d="M8.3,41.2c0.4,0.2,0.6,0.5,0.3,0.9c-0.1,0.1-0.5,0.1-0.6,0C7.8,41.8,8,41.5,8.3,41.2z"/>
			<path class="st0" d="M12.1,38.5c-0.2,0.2-0.4,0.5-0.5,0.5c-0.1,0-0.3-0.2-0.4-0.4c0-0.1,0.2-0.3,0.3-0.3
				C11.6,38.2,11.8,38.3,12.1,38.5z"/>
			<path class="st0" d="M9.6,46.2c-0.2,0.2-0.3,0.3-0.5,0.3c-0.3,0.1-0.6-0.1-0.5-0.4c0-0.1,0.3-0.3,0.5-0.3
				C9.3,45.8,9.4,46,9.6,46.2z"/>
			<path class="st0" d="M10.3,50.6C10,50.8,9.9,51,9.7,51c-0.1,0-0.4-0.2-0.4-0.3c0-0.2,0.2-0.4,0.3-0.5C9.8,50.2,10,50.4,10.3,50.6
				z"/>
			<path class="st0" d="M50.4,24.1c-0.2-0.2-0.4-0.3-0.5-0.5c-0.1-0.3,0.1-0.5,0.4-0.5c0.2,0,0.4,0.2,0.4,0.4
				C50.7,23.7,50.5,23.9,50.4,24.1L50.4,24.1z"/>
			<path class="st0" d="M54.1,26.8c-0.2,0.2-0.4,0.4-0.5,0.4c-0.1,0-0.4-0.3-0.4-0.4c0-0.1,0.2-0.4,0.4-0.4
				C53.7,26.4,53.8,26.6,54.1,26.8L54.1,26.8z"/>
			<path class="st0" d="M20.3,25c-0.1-0.2-0.3-0.4-0.3-0.6c0-0.1,0.2-0.4,0.4-0.4c0.3,0,0.5,0.2,0.4,0.5
				C20.7,24.7,20.5,24.8,20.3,25L20.3,25z"/>
			<path class="st0" d="M56.8,29.4c0.1,0.3,0.3,0.5,0.3,0.6c0,0.1-0.3,0.2-0.4,0.4c-0.1-0.2-0.3-0.3-0.3-0.5S56.6,29.6,56.8,29.4
				L56.8,29.4z"/>
			<path class="st0" d="M44.6,21.2c0.1,0.3,0.3,0.5,0.3,0.6s-0.3,0.3-0.4,0.3c-0.1,0-0.3-0.3-0.3-0.4C44.1,21.6,44.4,21.4,44.6,21.2
				L44.6,21.2z"/>
			<path class="st0" d="M27.3,22c0.2,0.3,0.4,0.5,0.4,0.6c0,0.1-0.3,0.3-0.4,0.3c-0.1,0-0.3-0.2-0.3-0.3C27,22.4,27.2,22.2,27.3,22
				L27.3,22z"/>
			<path class="st0" d="M17.1,29.6c-0.3,0.2-0.5,0.4-0.6,0.4c-0.2-0.1-0.3-0.3-0.3-0.5c0-0.1,0.2-0.3,0.3-0.3
				C16.8,29.2,16.9,29.4,17.1,29.6L17.1,29.6z"/>
			<path class="st0" d="M17.8,27.8c-0.3,0.1-0.5,0.2-0.7,0.2c-0.1,0-0.3-0.3-0.2-0.5c0-0.1,0.3-0.3,0.5-0.3S17.5,27.6,17.8,27.8z"/>
			<path class="st0" d="M55.4,26.8c0.2,0.2,0.4,0.4,0.4,0.5c0,0.3-0.2,0.5-0.5,0.4c-0.2,0-0.3-0.3-0.3-0.4S55.2,27,55.4,26.8
				L55.4,26.8z"/>
			<path class="st0" d="M24.8,23.3c0.2,0.3,0.3,0.4,0.3,0.6c0,0.1-0.2,0.3-0.3,0.3c-0.2-0.1-0.3-0.2-0.5-0.4
				C24.5,23.7,24.6,23.6,24.8,23.3z"/>
			<path class="st0" d="M19.6,28.3c-0.2,0.2-0.4,0.4-0.5,0.4c-0.1,0-0.3-0.2-0.3-0.3c0.1-0.2,0.2-0.3,0.4-0.4
				C19.2,27.9,19.4,28.1,19.6,28.3L19.6,28.3z"/>
			<path class="st0" d="M61.1,37.5c-0.2,0.2-0.4,0.3-0.6,0.3c-0.1,0-0.2-0.2-0.3-0.3c0.2-0.1,0.3-0.3,0.5-0.4
				C60.7,37.1,60.9,37.4,61.1,37.5z"/>
			<path class="st0" d="M51.6,26.6c-0.4-0.3-0.5-0.5-0.2-0.8c0.1-0.1,0.3,0,0.4,0C52.2,26.3,51.9,26.4,51.6,26.6z"/>
			<path class="st0" d="M10.8,39.9c0.2,0.2,0.4,0.3,0.4,0.5c0,0.1-0.2,0.4-0.3,0.3c-0.2,0-0.4-0.1-0.5-0.3
				C10.5,40.4,10.7,40.2,10.8,39.9z"/>
			<path class="st0" d="M19.8,26c0.2,0.2,0.3,0.3,0.4,0.4c-0.1,0.2-0.3,0.3-0.5,0.5c-0.1-0.1-0.3-0.2-0.3-0.4
				C19.5,26.4,19.6,26.2,19.8,26L19.8,26z"/>
			<path class="st0" d="M62.5,44c0.2,0.3,0.4,0.4,0.5,0.5c-0.1,0.1-0.3,0.3-0.4,0.3c-0.1,0-0.3-0.2-0.3-0.3
				C62.2,44.4,62.4,44.2,62.5,44L62.5,44z"/>
			<path class="st0" d="M9.8,42.3c0.2-0.1,0.4-0.2,0.6-0.3c0.1,0.2,0.1,0.4,0.2,0.6c-0.2,0-0.4,0.1-0.7,0.1L9.8,42.3L9.8,42.3z"/>
			<path class="st0" d="M13.4,32.3c0.5,0.4,0.5,0.7,0,1C12.9,33,12.9,32.6,13.4,32.3z"/>
			<path class="st0" d="M58.6,32.4c-0.2,0.2-0.3,0.4-0.4,0.4c-0.2,0-0.3-0.2-0.5-0.2c0.1-0.2,0.2-0.4,0.3-0.4
				C58.1,32.1,58.3,32.3,58.6,32.4z"/>
			<path class="st0" d="M12.7,36.7c-0.2,0.2-0.4,0.4-0.5,0.3c-0.2-0.1-0.3-0.3-0.4-0.4c0.1-0.1,0.3-0.3,0.4-0.3
				C12.3,36.4,12.4,36.5,12.7,36.7L12.7,36.7z"/>
			<path class="st0" d="M62,40.7c-0.2-0.3-0.4-0.4-0.4-0.6c0-0.1,0.2-0.3,0.4-0.3c0.1,0,0.3,0.2,0.3,0.3
				C62.3,40.2,62.1,40.4,62,40.7L62,40.7z"/>
			<path class="st0" d="M21.7,25.1c0.3-0.2,0.4-0.3,0.6-0.4c0.1,0.2,0.3,0.3,0.3,0.5c0,0.1-0.3,0.3-0.3,0.3
				C22.1,25.5,22,25.3,21.7,25.1z"/>
			<path class="st0" d="M30.5,21.2c-0.2,0.2-0.4,0.4-0.6,0.3c-0.2,0-0.3-0.2-0.5-0.4c0.1-0.1,0.3-0.4,0.5-0.4
				C30,20.8,30.2,21.1,30.5,21.2z"/>
			<path class="st0" d="M9.6,43.7c0.2,0.3,0.4,0.4,0.4,0.6c0,0.2-0.2,0.3-0.4,0.4c-0.1-0.1-0.3-0.2-0.3-0.3
				C9.3,44.2,9.5,44,9.6,43.7L9.6,43.7z"/>
			<path class="st0" d="M11.5,53.3c-0.2,0.2-0.4,0.2-0.5,0.3c-0.1-0.2-0.2-0.3-0.3-0.5c0.1-0.1,0.3-0.2,0.4-0.2
				C11.2,52.9,11.3,53.1,11.5,53.3L11.5,53.3z"/>
			<path class="st0" d="M10.3,49.2c-0.2-0.2-0.4-0.4-0.3-0.5c0.1-0.2,0.3-0.2,0.4-0.4c0.1,0.1,0.2,0.3,0.2,0.4
				C10.6,48.9,10.4,49.1,10.3,49.2L10.3,49.2z"/>
			<path class="st0" d="M61.3,47.9c0.2,0.2,0.3,0.3,0.3,0.5c0,0.1-0.2,0.2-0.3,0.3c-0.1-0.1-0.3-0.2-0.3-0.4
				C61,48.3,61.2,48.1,61.3,47.9z"/>
			<path class="st0" d="M61.3,42.5c-0.2-0.2-0.4-0.2-0.4-0.4c0-0.1,0.1-0.3,0.2-0.4c0.2,0.1,0.3,0.2,0.5,0.3
				C61.6,42,61.5,42.2,61.3,42.5z"/>
			<path class="st0" d="M55.3,29.3c-0.3,0.1-0.5,0.3-0.6,0.3c-0.1,0-0.2-0.2-0.2-0.4c0-0.1,0.2-0.4,0.3-0.3
				C54.9,28.9,55.1,29.1,55.3,29.3L55.3,29.3z"/>
			<path class="st0" d="M48.2,24.9c-0.2,0.2-0.3,0.4-0.3,0.4c-0.2-0.1-0.3-0.2-0.5-0.3c0.1-0.1,0.2-0.3,0.3-0.3
				C47.8,24.6,48,24.8,48.2,24.9z"/>
			<path class="st0" d="M16.4,31.5c-0.2,0.2-0.4,0.4-0.5,0.3c-0.1-0.1-0.2-0.3-0.4-0.4c0.1-0.1,0.3-0.2,0.4-0.2
				C16.1,31.2,16.2,31.4,16.4,31.5z"/>
			<path class="st0" d="M14.5,37.2c-0.1,0.1-0.2,0.2-0.3,0.3c-0.1-0.1-0.2-0.2-0.3-0.3c0,0,0.2-0.3,0.2-0.2
				C14.2,37,14.3,37.1,14.5,37.2L14.5,37.2z"/>
			<path class="st0" d="M24.2,25.3c0.1,0.2,0.2,0.4,0.2,0.5c0,0.1-0.2,0.2-0.2,0.2c-0.1-0.1-0.3-0.2-0.3-0.3
				C23.9,25.7,24.1,25.5,24.2,25.3L24.2,25.3z"/>
			<path class="st0" d="M26.7,23.9c0.1,0.3,0.2,0.5,0.2,0.6c0,0.1-0.2,0.2-0.3,0.3c-0.1-0.1-0.2-0.2-0.2-0.3
				C26.5,24.3,26.6,24.2,26.7,23.9z"/>
			<path class="st0" d="M60,39.9c-0.2-0.2-0.3-0.3-0.4-0.4c0.1-0.1,0.2-0.2,0.3-0.3c0.1,0,0.3,0.1,0.3,0.2
				C60.3,39.5,60.2,39.7,60,39.9L60,39.9z"/>
			<path class="st0" d="M46.3,24.3c-0.3,0.1-0.5,0.3-0.6,0.2c-0.1,0-0.2-0.2-0.3-0.4c0.1-0.1,0.2-0.2,0.3-0.2
				C46,24,46.1,24.1,46.3,24.3L46.3,24.3z"/>
			<path class="st0" d="M12,44.8c-0.2,0.2-0.3,0.3-0.3,0.3c-0.1,0-0.3-0.1-0.4-0.2c0.1-0.1,0.1-0.2,0.2-0.3
				C11.6,44.7,11.8,44.7,12,44.8z"/>
			<path class="st0" d="M53.2,28.8c-0.2,0.1-0.3,0.2-0.4,0.2c-0.1-0.1-0.2-0.3-0.2-0.4c0-0.1,0.2-0.2,0.3-0.3
				C53.1,28.5,53.1,28.7,53.2,28.8z"/>
			<path class="st0" d="M15.9,33.5c-0.3,0.1-0.5,0.2-0.6,0.2c-0.1,0-0.2-0.2-0.3-0.3c0.1-0.1,0.2-0.2,0.3-0.2
				C15.5,33.2,15.6,33.3,15.9,33.5z"/>
			<path class="st0" d="M56.5,31.8c-0.2,0.2-0.3,0.3-0.4,0.4c-0.1-0.1-0.2-0.2-0.2-0.4c0-0.1,0.2-0.3,0.2-0.2
				C56.2,31.6,56.3,31.7,56.5,31.8z"/>
			<path class="st0" d="M59.1,36.9c-0.2,0.1-0.3,0.2-0.4,0.3c0,0-0.2-0.2-0.2-0.2c0-0.1,0.2-0.2,0.3-0.3
				C58.8,36.6,58.9,36.8,59.1,36.9z"/>
			<path class="st0" d="M15.1,35.4c-0.2,0.1-0.3,0.2-0.4,0.2c-0.1-0.1-0.2-0.2-0.3-0.3c0,0,0.2-0.2,0.2-0.2
				C14.8,35.1,14.9,35.2,15.1,35.4L15.1,35.4z"/>
			<path class="st0" d="M18.4,29.7c0.2,0.3,0.3,0.5,0.4,0.6c-0.1,0.1-0.2,0.2-0.3,0.2c-0.1,0-0.3-0.2-0.3-0.3
				C18.2,30,18.3,29.9,18.4,29.7L18.4,29.7z"/>
			<path class="st0" d="M10.9,46.3c0.2,0.3,0.3,0.4,0.4,0.5c0,0.1-0.1,0.2-0.1,0.3c-0.1-0.1-0.3-0.1-0.4-0.2
				C10.7,46.8,10.8,46.6,10.9,46.3L10.9,46.3z"/>
			<path class="st0" d="M12.8,41.4c-0.1-0.2-0.2-0.3-0.2-0.3c0-0.1,0.2-0.2,0.3-0.2c0,0,0.1,0.1,0.1,0.2
				C13,41.2,12.9,41.2,12.8,41.4z"/>
			<path class="st0" d="M59.3,41.1c0.1,0.1,0.2,0.2,0.2,0.3c0,0-0.1,0.2-0.1,0.2c-0.1,0-0.2-0.1-0.3-0.1
				C59.2,41.3,59.2,41.2,59.3,41.1L59.3,41.1z"/>
			<path class="st0" d="M12.3,42.7c0.1,0.2,0.2,0.3,0.2,0.3c0,0.1-0.2,0.1-0.3,0.2C12.1,43.2,12,43.1,12,43
				C12,42.9,12.2,42.8,12.3,42.7z"/>
			<path class="st0" d="M60.7,49.9c0.1,0.2,0.2,0.3,0.2,0.4c0,0.1-0.2,0.2-0.3,0.2s-0.2-0.2-0.2-0.3C60.4,50.1,60.6,50,60.7,49.9
				L60.7,49.9z"/>
			<path class="st0" d="M54.5,31.2c-0.1,0.1-0.2,0.2-0.3,0.2c-0.1,0-0.2-0.1-0.3-0.2c0.1-0.1,0.1-0.2,0.2-0.2
				C54.2,31,54.3,31.1,54.5,31.2L54.5,31.2z"/>
			<path class="st0" d="M62.3,46.4c-0.1,0.1-0.2,0.2-0.2,0.3c-0.1-0.1-0.2-0.2-0.4-0.2c0.1-0.1,0.2-0.2,0.2-0.2S62.2,46.3,62.3,46.4
				z"/>
			<path class="st0" d="M51.5,28.1c-0.2,0.1-0.3,0.2-0.5,0.1c-0.1,0-0.2-0.1-0.3-0.2c0.1-0.1,0.1-0.2,0.2-0.3
				C51,27.8,51.2,27.9,51.5,28.1z"/>
			<path class="st0" d="M12.2,49.7c-0.1-0.2-0.2-0.2-0.2-0.3c0.1-0.1,0.2-0.1,0.3-0.2c0,0,0.1,0.1,0.1,0.2
				C12.4,49.4,12.3,49.5,12.2,49.7L12.2,49.7z"/>
			<path class="st0" d="M57.7,34.5c-0.1,0.1-0.3,0.2-0.3,0.2c-0.1-0.1-0.2-0.2-0.2-0.3c0.1,0,0.2-0.1,0.3-0.1
				C57.6,34.2,57.6,34.3,57.7,34.5L57.7,34.5z"/>
			<path class="st0" d="M49.4,27.5c-0.2,0.1-0.3,0.2-0.4,0.2c0,0-0.2-0.1-0.2-0.2c0-0.1,0.1-0.2,0.2-0.2
				C49.2,27.3,49.3,27.4,49.4,27.5L49.4,27.5z"/>
			<path class="st0" d="M59.2,34.6c0.2,0.1,0.4,0.2,0.4,0.2c0,0.1-0.1,0.3-0.2,0.4c0,0-0.3-0.1-0.3-0.2C59,34.9,59.1,34.8,59.2,34.6
				L59.2,34.6z"/>
			<path class="st0" d="M12.2,51.2c-0.4,0.2-0.5,0.3-0.6,0.3s-0.1-0.2-0.2-0.3c0.1-0.1,0.2-0.2,0.3-0.2
				C11.8,51.1,11.9,51.1,12.2,51.2z"/>
			<path class="st0" d="M21.6,26.7c0.1,0.1,0.2,0.2,0.3,0.3c-0.1,0.1-0.2,0.2-0.3,0.3c-0.1-0.1-0.2-0.2-0.2-0.3
				C21.4,26.9,21.5,26.8,21.6,26.7L21.6,26.7z"/>
			<path class="st0" d="M49.7,25.3c0.1,0.1,0.2,0.2,0.2,0.3c-0.1,0.1-0.2,0.2-0.4,0.3c-0.1-0.1-0.2-0.2-0.2-0.3
				C49.4,25.5,49.6,25.4,49.7,25.3L49.7,25.3z"/>
			<path class="st0" d="M60.7,43.5c0.1,0.2,0.2,0.3,0.2,0.4c0,0.1-0.2,0.2-0.3,0.2c-0.1,0-0.2-0.2-0.2-0.3
				C60.4,43.7,60.6,43.6,60.7,43.5z"/>
			<path class="st0" d="M13.8,39.2c-0.1,0-0.3,0.1-0.4,0.1c0,0-0.1-0.1-0.1-0.2c0.2,0,0.4-0.1,0.5-0.1
				C13.7,39.1,13.8,39.2,13.8,39.2z"/>
			<path class="st0" d="M26.1,26.7c-0.1-0.2-0.2-0.3-0.1-0.4c0,0,0.1-0.1,0.2-0.1s0.1,0.1,0.2,0.1C26.2,26.4,26.2,26.5,26.1,26.7z"
				/>
			<path class="st0" d="M21,28.6c0.1,0.2,0.2,0.3,0.2,0.4c-0.1,0-0.2,0.1-0.3,0.1c0,0-0.1-0.1-0.1-0.2C20.9,28.8,20.9,28.8,21,28.6z
				"/>
			<path class="st0" d="M18.1,32.1c-0.1,0.1-0.2,0.2-0.3,0.2c0,0-0.1-0.1-0.2-0.1c0.1-0.1,0.2-0.2,0.3-0.2C18,32,18,32,18.1,32.1
				L18.1,32.1z"/>
			<path class="st0" d="M52.6,30.6c-0.1,0.1-0.3,0.1-0.4,0.2c0-0.1-0.1-0.2-0.1-0.2c0.1-0.1,0.2-0.1,0.4-0.1
				C52.5,30.5,52.5,30.6,52.6,30.6z"/>
			<path class="st0" d="M14.2,43.7c-0.1,0-0.1,0-0.2-0.1c0,0,0.1-0.1,0.1-0.1c0.1,0,0.1,0,0.2,0.1C14.2,43.7,14.2,43.7,14.2,43.7z"
				/>
			<path class="st0" d="M60,45.9c0,0-0.1-0.1-0.1-0.2c0.1,0,0.1-0.1,0.2-0.1c0,0,0.1,0.1,0.1,0.2C60.1,45.9,60.1,45.9,60,45.9
				L60,45.9z"/>
			<path class="st0" d="M58.2,38.8c0,0.1-0.1,0.1-0.1,0.2c0-0.1-0.1-0.1-0.1-0.2c0-0.1,0.1-0.1,0.1-0.2
				C58.1,38.6,58.2,38.7,58.2,38.8z"/>
			<path class="st0" d="M56.8,36.5c0,0-0.1-0.1-0.1-0.1c0-0.1,0-0.1,0.1-0.2c0,0,0.1,0.1,0.1,0.1C56.9,36.3,56.8,36.4,56.8,36.5
				L56.8,36.5z"/>
			<path class="st0" d="M60.3,52.2c-0.1,0-0.1,0.2-0.2,0.1c-0.1,0-0.1-0.1-0.2-0.2c0.1,0,0.1-0.1,0.2-0.1
				C60.2,52.1,60.2,52.2,60.3,52.2z"/>
			<path class="st0" d="M23.7,27.7c0,0.1-0.1,0.1-0.1,0.2c0-0.1-0.1-0.1-0.1-0.2c0,0,0.1-0.1,0.1-0.2C23.6,27.6,23.7,27.6,23.7,27.7
				z"/>
			<path class="st0" d="M55.5,33.6c0.1,0,0.1,0.1,0.2,0.1c-0.1,0-0.1,0.1-0.2,0.1c-0.1,0-0.1-0.1-0.2-0.2
				C55.4,33.7,55.5,33.7,55.5,33.6L55.5,33.6z"/>
			<path class="st0" d="M25.5,28.3C25.5,28.3,25.5,28.4,25.5,28.3c-0.1,0-0.1-0.1-0.1-0.1c0,0,0-0.1,0.1-0.1
				C25.5,28.2,25.5,28.3,25.5,28.3L25.5,28.3z"/>
			<path class="st0" d="M53.6,33c0,0,0,0.1,0,0.1c0,0-0.1,0-0.1,0C53.5,33.1,53.5,33.1,53.6,33C53.5,33,53.5,33,53.6,33L53.6,33z"/>
			<path class="st0" d="M12.9,54c0,0-0.1-0.1-0.1-0.2c0.1,0,0.1-0.1,0.2-0.1c0.1,0,0.1,0.1,0.1,0.1C13.1,53.9,13,53.9,12.9,54
				L12.9,54z"/>
			<path class="st0" d="M14.4,56.4c-0.1,0-0.1,0.1-0.1,0.1c0-0.1-0.1-0.2-0.1-0.2c0,0,0.1-0.1,0.1-0.1
				C14.3,56.3,14.3,56.3,14.4,56.4z"/>
			<path class="st0" d="M59.5,47.7C59.5,47.7,59.4,47.8,59.5,47.7c-0.1,0.1-0.2,0-0.2,0S59.4,47.6,59.5,47.7
				C59.4,47.6,59.5,47.7,59.5,47.7L59.5,47.7z"/>
			<path class="st0" d="M13,47.4c0,0-0.1,0.1-0.1,0.1c0-0.1,0-0.1,0-0.2C12.9,47.4,13,47.4,13,47.4L13,47.4z"/>
			<polygon class="st0" points="58.1,45.2 58.1,45.3 58.1,45.3 			"/>
			<polygon class="st0" points="58.7,43.4 58.6,43.4 58.6,43.3 			"/>
			<path class="st0" d="M16.6,35.8C16.6,35.8,16.7,35.9,16.6,35.8C16.7,35.9,16.6,35.9,16.6,35.8C16.6,35.9,16.6,35.9,16.6,35.8
				L16.6,35.8z"/>
			<polygon class="st0" points="54.9,35.7 54.8,35.6 54.9,35.6 			"/>
			<path class="st0" d="M47.1,26.8C47.1,26.8,47.1,26.8,47.1,26.8c0.1,0.1,0.1,0.1,0,0.2C47.1,26.9,47.1,26.9,47.1,26.8
				C47,26.9,47.1,26.8,47.1,26.8L47.1,26.8z"/>
			<path class="st0" d="M17.3,34C17.3,34,17.2,34.1,17.3,34c-0.1,0.1-0.1,0-0.2,0C17.1,34,17.2,34,17.3,34C17.2,34,17.3,34,17.3,34z
				"/>
			<path class="st0" d="M50.4,30C50.4,30,50.3,30.1,50.4,30c-0.1,0.1-0.1,0-0.2,0C50.3,30,50.3,30,50.4,30C50.4,30,50.4,30,50.4,30z
				"/>
			<path class="st0" d="M20.4,30.9C20.4,30.9,20.4,30.9,20.4,30.9c0-0.1,0-0.1,0-0.2C20.4,30.8,20.5,30.8,20.4,30.9
				C20.5,30.9,20.4,30.9,20.4,30.9L20.4,30.9z"/>
		</g>
	</g>
</g>
</svg>
