<?xml version="1.0" encoding="UTF-8"?>
<svg id="Capa_2" data-name="Capa 2" xmlns="http://www.w3.org/2000/svg" viewBox="0 0 302 69.65">
  <defs>
    <style>
      .cls-1 {
        fill: #fff;
      }
    </style>
  </defs>
  <g id="Isolation_Mode" data-name="Isolation Mode">
    <g>
      <path class="cls-1" d="m135.89,38.17c2.75-4.86,5.44-9.61,8.15-14.39h1.34c.28.98.39,15.08.15,19.41-.35.04-.71.08-1.01.11-.11-.11-.17-.15-.17-.18,0-5.6,0-11.2-.24-16.87-.22.35-.45.7-.65,1.06-2.21,3.9-4.42,7.8-6.63,11.71-.09.15-.15.32-.26.47-.42.58-.99.59-1.38-.03-.57-.9-1.09-1.83-1.62-2.76-1.98-3.42-3.96-6.84-5.94-10.26-.08-.15-.19-.28-.4-.57v17.33c-.39.02-.71.03-1.09.05v-19.39c1.28-.23,1.29-.23,1.84.72,2.43,4.19,4.85,8.38,7.27,12.57.18.31.38.6.64,1.01Z"/>
      <path class="cls-1" d="m211.33,43.17c-1.02.33-1.67.02-2.26-.75-1.84-2.39-3.77-4.72-5.61-7.12-.49-.64-1.01-.94-1.79-.89-.71.04-1.42,0-2.17,0-.31.99-.11,1.97-.14,2.93-.04.93,0,1.87,0,2.8v2.95c-.48.3-.94.19-1.48.13v-19.42c.3-.03.59-.09.89-.09,1.87,0,3.74,0,5.61,0,1.33,0,2.52.43,3.59,1.21,2.45,1.78,2.32,6.6-.65,8.22-.92.5-1.93.84-2.92,1.26,2.26,2.85,4.59,5.79,6.95,8.76Zm-11.95-9.82c1.25,0,2.35-.03,3.46,0,1.09.04,2.1-.24,3.07-.7,1.72-.81,2.46-2.24,2.3-4.38-.12-1.55-1.03-2.63-2.78-3.17-.5-.16-1.03-.24-1.55-.27-.75-.05-1.51-.06-2.26-.04-.74.02-1.49-.11-2.24.11v8.45Z"/>
      <path class="cls-1" d="m172.57,40.63v-16.8c.37-.04.69-.07,1.1-.11v19.46c-.56.23-.94.07-1.32-.44-1.39-1.9-2.83-3.76-4.24-5.65-2.66-3.56-5.31-7.12-7.97-10.67-.05-.07-.14-.1-.33-.22v17.03h-1.12c-.21-1-.28-17.09-.08-19.37.64-.31,1.13-.13,1.56.46,2.52,3.39,5.05,6.77,7.58,10.15,1.38,1.85,2.77,3.7,4.17,5.54.15.2.37.35.66.63Z"/>
      <path class="cls-1" d="m105.56,23.76h1.24c.04.2.12.4.12.61,0,3.61-.01,7.21.02,10.82,0,.88.13,1.77.32,2.63.56,2.51,2.83,4.45,5.73,4.46,3.06,0,5.23-2.05,5.77-4.4.18-.77.2-1.59.2-2.38.02-3.47,0-6.95,0-10.42,0-.39,0-.79,0-1.28.5-.03.92-.06,1.41-.09.05.33.11.58.11.83,0,3.78.02,7.57,0,11.35,0,1.68-.42,3.27-1.4,4.64-1.71,2.41-4.18,3.24-7,2.96-2.77-.27-4.83-1.71-5.91-4.34-.33-.81-.58-1.71-.59-2.57-.06-4.22-.03-8.45-.03-12.82Z"/>
      <path class="cls-1" d="m297.03,43.21h-1.45c-.83-1.99-1.66-3.99-2.49-6h-9.6c-.84,2.02-1.67,4.02-2.5,6.02h-1.43c2.65-6.54,5.3-12.99,7.98-19.46h1.53c2.65,6.46,5.29,12.9,7.96,19.44Zm-4.41-7.2c-1.45-3.6-2.86-7.08-4.32-10.7-.55,1.34-1.03,2.48-1.5,3.63-.48,1.19-1,2.37-1.43,3.58-.41,1.14-1.09,2.19-1.28,3.49h8.52Z"/>
      <path class="cls-1" d="m177.1,43.16c2.67-6.51,5.29-12.91,7.94-19.38h1.56c2.64,6.43,5.29,12.89,7.98,19.45-.34.03-.55.06-.77.05-.22,0-.43-.04-.7-.07-.83-2.02-1.66-4.01-2.49-6.02h-9.57c-.36.82-.75,1.7-1.13,2.59-.36.86-.69,1.73-1.04,2.59-.39.94-.39.93-1.77.78Zm8.72-17.87c-1.47,3.63-2.89,7.13-4.32,10.65,2.17.26,7.68.18,8.55-.13-1.39-3.45-2.77-6.89-4.23-10.52Z"/>
      <path class="cls-1" d="m232.38,32.75h8.51c.05.39.09.68.13.97-.17.08-.28.18-.4.18-2.31.01-4.63.01-6.94.01-.43,0-.87,0-1.35,0v8.16c1.12.22,2.27.07,3.41.1,1.11.03,2.22,0,3.34,0s2.3,0,3.54,0c.03.36.05.64.07.92-1.02.25-9.05.33-11.6.13-.22-.96-.26-17.94-.04-19.46h11.55c.02.29.04.61.07,1.02h-10.19c-.25,1.02-.31,5.9-.1,7.95Z"/>
      <path class="cls-1" d="m259.01,40.88c.2-.25.41-.52.68-.86.36.28.67.51.97.76,1.64,1.35,3.5,1.96,5.58,1.4,3-.8,3.87-2.98,3.34-5.59-.1-.5-.59-.98-1-1.36-.98-.9-2.29-1.14-3.49-1.58-.79-.29-1.6-.52-2.37-.87-2.14-.98-3.02-2.68-2.86-4.54.21-2.43,1.61-3.96,3.58-4.49,2.28-.62,4.49-.43,6.47.99.71.51.7.67,0,1.5-.66-.39-1.32-.82-2.02-1.17-2-1.03-4.64-.5-5.93,1.17-1.01,1.29-.9,3.4.32,4.47.55.48,1.24.85,1.93,1.13,1.18.49,2.42.86,3.61,1.32.49.19.98.43,1.41.74,1.79,1.28,2.38,3.38,1.61,5.59-.77,2.21-2.32,3.44-4.63,3.91-2.3.46-5.72-.37-7.21-2.52Z"/>
      <path class="cls-1" d="m219.16,24.81h-6.87v-1.02h15.14c.02.3.04.58.06.84-.09.06-.12.11-.16.11-2.16.05-4.33.1-6.62.15v18.33h-1.53c-.05-2.04-.02-4.07-.02-6.1,0-2,0-4,0-6.01s0-4.08,0-6.3Z"/>
      <path class="cls-1" d="m93.18,42.2h9.29v1.03h-10.73v-19.45c.45-.02.87-.04,1.44-.07.01,2.13,0,4.17,0,6.2,0,2,0,4,0,6v6.3Z"/>
      <path class="cls-1" d="m151.36,23.76h1.25c.25.92.32,17.63.08,19.45-.15.03-.32.08-.48.08-.26,0-.52-.03-.85-.05v-19.48Z"/>
      <path class="cls-1" d="m85.84,43.25h-1.27c-.04-.15-.12-.32-.12-.48,0-3.11,0-6.22,0-9.34,0-2.76,0-5.51,0-8.27,0-.44,0-.87,0-1.38h1.4v19.46Z"/>
      <path class="cls-1" d="m246.27,46.87c-.48-.93.39-1.17.55-1.68.19-.57.5-1.1.79-1.72-.45-.11-.76-.14-1.03-.26-.51-.23-.77-.82-.64-1.32.14-.53.77-1.02,1.27-1,.52.02,1.01.42,1.1.98.24,1.44-.21,2.71-1.04,3.86-.27.38-.62.7-1.01,1.15Z"/>
      <path class="cls-1" d="m302,42.25c0,.57-.69,1.26-1.3,1.28-.71.02-1.35-.63-1.33-1.34.02-.63.65-1.28,1.26-1.3.62-.02,1.35.71,1.36,1.37Z"/>
      <path class="cls-1" d="m277.17,42.16c.03.69-.52,1.33-1.19,1.37-.61.04-1.33-.59-1.4-1.2-.07-.66.63-1.44,1.29-1.44.66,0,1.26.59,1.29,1.27Z"/>
      <g>
        <path class="cls-1" d="m41.2,69.65c.19-.35.33-.65.51-.93,1.69-2.7,2.83-5.62,3.37-8.76.46-2.71.23-5.4-.34-8.07-1-4.65-3.17-8.75-6.03-12.49-1.05-1.37-2.11-2.75-3.48-3.9-1.29.97-2.23,2.21-3.19,3.42-2.5,3.16-4.48,6.61-5.72,10.47-.96,2.99-1.47,6.06-1.17,9.19.35,3.58,1.54,6.91,3.43,9.99.19.32.36.65.59,1.06C13.37,67.23-.85,52.68.04,33.53.92,14.56,16.26-.08,35.36,0c19.11.08,33.47,14.79,34.87,32.01,1.7,20.93-13.9,35.42-29.03,37.64Zm7.95-62.23l.54.28c-.04.43.02.91-.15,1.28-.11.24-.54.33-.83.49.53.87.51,1.21-.05,1.57-.37.23-.69.14-.96-.13-.44-.45-.25-.97.58-1.71-.12-.29-.23-.57-.35-.85-1.08.31-1.46.28-1.66-.16-.09-.19-.18-.49-.09-.63.2-.35.51-.64.78-.96-.28-.57-.71-.58-1.23-.33.08.25.18.49.24.74.09.39-.03.7-.41.89-.42.2-.91.1-1.18-.28-.15-.21-.23-.48-.35-.72.35-.3.69-.61,1.01-.88-.33-.84-.84-.61-1.27-.36.11.46.2.87.3,1.28-1.1.77-1.17.75-2.04-.45-.28.19-.57.38-.84.56.31,1.02.25,1.37-.23,1.51-.5.14-.97-.04-1.13-.44-.24-.57-.01-.89.9-1.31-.17-.3-.35-.6-.52-.89-.38.11-.74.22-1.12.34.12.17.29.33.36.52.21.54.09.96-.33,1.14-.39.16-.79.16-1.1-.19-.27-.31-.22-.86.11-1.21.17-.17.4-.28.56-.39-.16-.39-.27-.67-.38-.93-.37.18-.74.36-1.11.54.53.79.57,1.16.18,1.51-.48.42-.88.29-1.77-.61-.27.12-.55.24-.82.37.1.23.21.41.27.62.13.44-.02.76-.45.97-.39.19-.76.08-.96-.2-.19-.25-.18-.64-.27-.97l-.03.04c.32-.22.64-.45.98-.68-.17-.28-.35-.56-.53-.85-1.25.46-1.52.32-1.89-.65-.38.15-.75.3-1.12.44.58.78.63,1.24.18,1.59-.48.36-.96.17-1.59-.66-.32.12-.64.24-.97.36.45.92.41,1.36-.17,1.66-.15.07-.4.14-.5.07-.37-.26-.69-.57-.96-.8-.39.09-.8.18-1.21.28l.05.04c-.24-.33-.49-.66-.72-.99-.15.08-.27.13-.38.2-.15.09-.29.18-.41.26.28,1.04.23,1.36-.22,1.55-.43.19-1.05.07-1.17-.27-.09-.24-.17-.58-.06-.76.17-.31.5-.54.76-.81-.12-.32-.23-.63-.34-.93-.31.2-.6.38-.9.57.36,1.07.34,1.39-.18,1.59-.23.09-.58.18-.76.07-.35-.2-.61-.54-.9-.81-.23.14-.5.31-.79.48.21.31.39.59.57.85,1.26-.36,1.36-.31,1.73.86l.04-.04c-.35.32-.7.64-1.04.95.3.93.23,1.31-.25,1.49-.45.16-.98-.03-1.11-.45-.06-.2-.13-.53-.02-.64.26-.28.62-.48.9-.67-.17-.37-.33-.72-.48-1.04-.35.19-.71.38-1.07.57.11.17.28.34.35.54.14.4.12.81-.32,1.03-.38.19-.78.24-1.1-.11-.3-.34-.3-.75-.06-1.11.16-.25.44-.42.66-.63-.15-.24-.29-.46-.46-.74-.28.18-.53.33-.76.48.34,1.38.19,1.59-1.16,1.72-.13-.15-.25-.31-.37-.45-.44.23-.78.48-.66,1-.35.32-.69.64-1.05.97.26.43.47.9-.03,1.39-.64.62-1.1.07-1.52-.26-.7.3-.67.85-.67,1.39,0,0,.04-.05.04-.05-.35.23-.71.46-1.06.69.51,1.38.29,1.65-1.55,1.69.61.31,1.32.35,1.22,1.02-.05.29-.32.64-.59.79-.55.3-.85-.18-1.23-.66-.21.42-.39.79-.61,1.24.48-.1.8-.24,1.11-.21.21.02.54.27.55.44.03.32-.04.72-.23.95-.14.16-.62.2-.82.08-.3-.19-.48-.56-.79-.95-.2.38-.55.75-.51,1.06.1.79-.32,1.23-.76,1.53,0,.49.12.91-.03,1.15-.2.31-.62.47-.94.69.69,1.07.15,1.59-.42,1.97.07.46.29.93.14,1.11-.44.55-.41,1.22-.64,1.79-.45,1.12-.22,2.28-.6,3.4.55.24,1.26.21,1.27,1-.24.52-.63.79-1.39.66.79.65.98,1.28.26,1.97-.1.09-.08.34-.06.51.08.75.18,1.49.27,2.17.36.31.68.59.94.81-.2.54-.51.95-.47,1.33.06.63.35,1.24.54,1.86l-.04-.04c.29.95.56,1.91.89,2.85.09.26.4.43.57.66.14.2.34.46.3.65-.22,1.06.39,1.62,1.22,2.13-.16.95.29,1.67,1,2.27.13.11.27.25.32.4.41,1.28,1.38,2.13,2.09,2.96.42.03.65.04.89.06-.04.27-.09.53-.15.92,1.07.66,1.58,2.18,3.14,2.37.05,0,.14.13.12.17-.19.56.34.66.6.87,1.61,1.26,3.35,2.32,5.18,3.24.25.12.53.17.89.27-1.28-3.66-2.2-7.25-2.66-10.96-.52-4.2-.31-8.34.95-12.38,1.19-3.83,2.93-7.43,5.04-10.83,1.16-1.87,2.37-3.72,3.53-5.55-.1-.22-.17-.4-.27-.62.53-.1.91-.16,1.2-.6.73-1.12,1.55-2.17,2.34-3.25.21-.28.38-.52.14-.94-.21-.35.04-.81.45-.73.87.17.96-.38,1.1-.96.03-.02.07-.03.1-.06.02-.01.02-.04.03-.06-.03.05-.07.11-.1.16-.16.06-.37.22-.48.17-.22-.1-.46-.28-.55-.48-.06-.14.08-.42.2-.56.21-.25.47-.18.7.02.1.09.19.2.3.26.05.03.15-.03.29-.07.02-.24.05-.5.08-.78-.36-.28-1.04-.17-1.07-.82-.04-.7.71-.62,1.17-.97-.92-.7-.44-1.7-.73-2.48-.34-.17-.7-.27-.93-.51-.18-.19-.32-.58-.24-.8.08-.22.43-.41.7-.47.38-.09.7.1.8.51.06.24.07.48.12.89.42-.5.7-1.12,1.34-.78.22.12.4.47.43.74.08.65-.54.69-.98.91.28.32.53.62.73.85.13.06.17.09.21.09.09,0,.18,0,.27,0,.99.05.98.07.87,1.07-.03.27.03.66.2.83.67.63,1.18,1.37,1.59,2.18.05.1.21.13.32.2l-.04-.05c.21.75.69,1.32,1.19,1.87.44-.25.89-.5,1.17.05.26.52-.38.6-.61.92.21.32.4.67.64.98.12.16.34.4.48.38.73-.08.73.26.57.79-.05.18-.06.44.04.58.35.53.75,1.03,1.19,1.61.05.23.07.62.22.94.49,1.03,1.05,2.02,1.54,3.05,1.51,3.13,2.76,6.35,3.64,9.71.83,3.14,1.44,6.32,1.45,9.58,0,1.64-.12,3.28-.24,4.92-.23,3.02-.88,5.96-1.82,8.84-.27.82-.53,1.65-.81,2.52,2.66-.61,8.74-4.99,11.29-8.6-.05-.26-.1-.5-.2-.95.67.47.95.13,1.18-.26.87-1.47,2.2-2.69,2.4-4.52,0-.08.06-.19.13-.22.92-.41.74-1.12.44-1.8.36-.28.84-.46.91-.75.1-.36-.13-.81-.23-1.27.17-.1.31-.21.47-.25.59-.17.63-.45.28-.93-.33-.44-.28-.76.33-1,.56-.22.54-.4.22-.97-.1-.18-.14-.39-.21-.59.31-.27.58-.49.86-.74-.19-.65-.42-1.3.19-1.84.05-.05.04-.17.05-.26.07-.97.14-1.94.22-2.96-.33.13-.6.24-.86.34q-.75-.69,0-1.39c.26.1.52.21.87.34-.03-.4.03-.76-.39-.96-.56-.26-.57-.75-.22-1.08.49-.46.38-.95.29-1.47-.09-.52-.19-1.04-.28-1.56q-1.05-.55-.52-1.72c.16-.37-.03-1.13-.33-1.29-.23.14-.45.27-.67.41-.42-.28-.86-.47-.74-1.04.13-.65.76-.49,1.25-.69-.52-.45-.73-.97-.74-1.64,0-.5-.2-1.01-.81-1.25-.34-.14-.63-.49-.39-.99.24-.5-.12-1-.42-1.14-.82-.39-.92-1.06-1-1.8,0-.05-.13-.1-.21-.14-.06.21-.08.46-.2.63-.31.43-.89.46-1.27.09-.35-.34-.32-.78.15-1.13.23-.17.53-.25.74-.34-.24-.35-.48-.71-.73-1.07-.87.46-1.13.46-1.47,0-.1-.13-.23-.35-.19-.47.14-.35.35-.66.55-1-.37-.98-1.9-.42-2.09-1.62-.61.33-1.11.42-1.51-.13-.47-.65.13-1,.4-1.39-.26-.77-.91-.6-1.47-.65l.04.03c-.22-.32-.45-.64-.67-.96-.32.13-.64.27-.96.4l.04.04c-.33-.33-.67-.66-1.03-1.02-.94.34-1.25.32-1.54-.17-.28-.47-.17-.76.61-1.46-.38-.11-.7-.21-1.03-.3-.18-.09-.36-.18-.55-.27-.38-.47-.82-.72-1.45-.5.1.34.19.63.27.9.41-.14.81-.29,1.21-.43Zm-19.94-2.27c.1.42.18.76.27,1.1.3-.21.61-.42.97-.67-.16-.27-.31-.52-.47-.79-.28.13-.51.24-.77.37Zm-2.71,1.32c.22.35.4.63.57.91.31-.22.58-.41.87-.61-.21-.25-.41-.48-.6-.7-.29.14-.52.25-.85.41Zm7.92-2.36c-.34.21-.55.34-.75.46.13.34.24.62.35.89.3-.19.61-.38.9-.57-.17-.26-.3-.47-.5-.78Zm1.49,1.97c.31-.21.61-.41.9-.61-.18-.29-.32-.49-.48-.75-.3.17-.55.31-.77.44.12.32.23.6.36.92Zm6.41-.07c.33-.22.59-.41.86-.59-.65-.64-.99-.69-1.2-.22.11.26.21.5.34.81Zm-17.13.61c.34-.15.6-.25.87-.37-.31-.33-.46-.93-1.03-.52-.44.32-.06.59.16.89Zm16.22-1.73c-.48-.39-.85-.52-1.3-.27.13.23.24.45.35.66.3-.12.58-.24.95-.39Zm-12.78-.04c-.63-.08-1.02-.09-1.1.69.39-.25.67-.42,1.1-.69Zm4.42-.64q-.8.06-.95.56c.3-.18.53-.31.95-.56Zm6.07.1h-.79q.26.38.79,0Zm12.91,4.69s-.04-.07-.06-.1c-.03.07-.06.14-.07.21,0,.03.04.07.06.1.03-.07.05-.14.08-.21Z"/>
        <path class="cls-1" d="m14.9,11.97c.37-.18.73-.36,1.1-.55.45.36.88.73.76,1.4l.04-.05s-.09.01-.13.04c-1.17.87-1.59.67-1.78-.84Z"/>
        <path class="cls-1" d="m25.58,8.22c.08.1.15.2.23.3.66.86.42,1.44-.65,1.58-.13.02-.26,0-.39-.01l.05.04c-.13-.44-.26-.89-.42-1.42.49-.18.86-.31,1.23-.44l-.05-.04Z"/>
        <path class="cls-1" d="m21.85,10.14c.17-.12.34-.26.52-.36.53-.3.89-.2,1.19.32.25.43.15.81-.3,1.12-.39.27-.82.2-1.12-.26-.16-.24-.17-.57-.25-.86l-.04.04Z"/>
        <path class="cls-1" d="m33.39,7.41c-.18.17-.35.38-.55.52-.44.28-1,.14-1.25-.27-.22-.37-.12-.94.21-1.17.43-.3.94-.21,1.24.25.14.21.21.48.31.72l.03-.04Z"/>
        <path class="cls-1" d="m45.37,9.61c.13-.17.23-.39.41-.49.25-.15.61-.36.8-.27.28.13.53.47.64.77.14.39-.16.68-.5.83-.17.08-.41.06-.6.01-.46-.11-.55-.53-.7-.9l-.05.05Z"/>
        <path class="cls-1" d="m51.83,12.54s0-.1-.03-.12c-.34-.33-.73-.7-.49-1.2.25-.53.78-.6,1.33-.53l-.04-.04s.01.09.03.12c.53,1.17.42,1.39-.84,1.73l.05.04Z"/>
        <path class="cls-1" d="m54.19,11.17c.19.18.41.33.55.55.26.39.14.85-.24,1.16-.36.29-.8.2-1.15-.24-.3-.37-.31-.75.06-1.05.23-.18.54-.26.81-.39l-.04-.03Z"/>
        <path class="cls-1" d="m45.41,9.56c-.32.11-.63.28-.96.32-.39.05-.64-.2-.77-.58-.15-.41.05-.69.34-.91.31-.24.65-.21.97.03.41.31.44.73.38,1.19l.05-.05Z"/>
        <path class="cls-1" d="m30.69,8.56c0,.46-.32.77-.84.8-.53.03-.81-.23-.82-.77,0-.58.32-.91.87-.89.47.02.78.36.79.86Z"/>
        <path class="cls-1" d="m11.68,15.5c.33-.34.62-.81,1.19-.6.26.09.55.31.65.55.2.44-.12.79-.49.95-.23.1-.65.09-.83-.06-.24-.2-.33-.59-.48-.89l-.04.05Z"/>
        <path class="cls-1" d="m16.76,12.82c.28-.19.53-.45.84-.55.41-.13.8.04.97.46.17.42-.02.8-.37,1.02-.36.23-.78.21-1.05-.15-.17-.23-.24-.55-.35-.83l-.04.05Z"/>
        <path class="cls-1" d="m9.03,22.66c0,.49-.34.84-.81.81-.47-.02-.81-.39-.79-.85.01-.39.34-.71.76-.74.48-.04.84.3.84.78Z"/>
        <path class="cls-1" d="m57.23,14.39c1.15.8,1.16,1.02.11,1.8-1.27-.64-1.3-.88-.11-1.8Z"/>
        <path class="cls-1" d="m16.01,14.35c.02.51-.29.83-.8.84-.52.02-.83-.27-.84-.8-.01-.53.26-.83.79-.84.51-.02.83.29.85.79Z"/>
        <path class="cls-1" d="m53.44,14.91c-.49.02-.82-.31-.82-.81,0-.44.27-.75.71-.79.48-.05.86.27.89.74.03.47-.3.84-.78.86Z"/>
        <path class="cls-1" d="m28.05,9.76c.03.5-.29.87-.78.89-.49.02-.84-.31-.86-.81-.01-.44.26-.76.71-.8.52-.06.89.24.93.72Z"/>
        <path class="cls-1" d="m38.94,9.16c-.01.4-.47.83-.87.84-.42,0-.77-.4-.77-.88,0-.48.38-.86.81-.82.41.03.84.48.82.87Z"/>
        <path class="cls-1" d="m31.77,8.34c.43.03.81.48.77.9-.04.42-.51.85-.89.81-.46-.05-.76-.43-.75-.93.01-.45.41-.81.87-.78Z"/>
        <path class="cls-1" d="m43.4,8.41c.01.43-.37.87-.78.9-.46.03-.93-.4-.96-.88-.03-.41.35-.76.86-.78.5-.02.88.3.89.75Z"/>
        <path class="cls-1" d="m37.06,8.52c-.02.38-.51.82-.91.81-.4-.01-.86-.49-.85-.87.02-.44.44-.8.9-.79.42.01.87.46.85.85Z"/>
        <path class="cls-1" d="m51.05,10.92c0,.5-.31.82-.82.83-.49,0-.82-.33-.83-.83,0-.5.32-.82.83-.83.5-.01.81.3.82.82Z"/>
        <path class="cls-1" d="m41.96,9.57c.48.02.81.41.76.89-.05.41-.43.74-.82.7-.4-.04-.76-.4-.77-.78-.01-.5.32-.83.83-.81Z"/>
        <path class="cls-1" d="m12.04,16.75c.51,0,.8.29.79.81,0,.49-.36.86-.8.83-.41-.02-.82-.44-.84-.86-.02-.45.33-.77.85-.78Z"/>
        <path class="cls-1" d="m55.4,13.88c.44.03.76.48.7.94-.06.44-.36.68-.82.66-.49-.01-.81-.36-.79-.85.02-.4.5-.79.91-.76Z"/>
        <path class="cls-1" d="m44.6,10.94c0,.44-.29.77-.72.8-.48.04-.9-.33-.87-.79.02-.41.35-.78.74-.81.49-.04.85.29.86.8Z"/>
        <path class="cls-1" d="m24.77,10.09c.2.16.41.31.58.5.31.35.33.7-.03,1.05-.35.34-.69.38-1.06.1-.39-.3-.4-.71-.17-1.06.16-.24.48-.37.73-.56l-.05-.04Z"/>
        <path class="cls-1" d="m12.2,19.44c-.03.43-.48.85-.88.83-.39-.03-.71-.39-.71-.81,0-.5.34-.81.86-.78.44.03.76.36.74.77Z"/>
        <path class="cls-1" d="m26.65,10.94c.44.01.85.45.8.86-.04.38-.43.72-.82.72-.48,0-.8-.37-.76-.87.03-.44.34-.72.78-.71Z"/>
        <path class="cls-1" d="m17.89,14.99c-.01.51-.34.81-.84.77-.41-.03-.77-.36-.77-.73,0-.46.49-.91.96-.87.4.04.66.37.65.83Z"/>
        <path class="cls-1" d="m59.32,17.84c0,.42-.34.8-.71.82-.39.02-.86-.42-.89-.83-.03-.42.39-.79.88-.77.44.02.72.33.72.78Z"/>
        <path class="cls-1" d="m14.53,15.47c.42-.01.88.43.87.84-.01.39-.38.75-.77.76-.52.02-.84-.3-.83-.82,0-.44.32-.77.74-.79Z"/>
        <path class="cls-1" d="m29.95,10.41c.01.45-.25.74-.71.78-.47.03-.89-.33-.88-.77,0-.38.51-.85.89-.83.37.02.69.39.7.82Z"/>
        <path class="cls-1" d="m19.73,14.4c-.53.03-.86-.27-.85-.77,0-.4.33-.78.71-.83.36-.04.86.43.88.82.01.38-.34.75-.73.77Z"/>
        <path class="cls-1" d="m40.08,10.62c-.5-.21-.95-.41-.84-1.03.07-.4.37-.57.76-.58.39,0,.71.14.8.54.14.61-.31.84-.72,1.08Z"/>
        <path class="cls-1" d="m61.71,21.89c-.44-.28-.88-.5-.7-1.06.12-.37.4-.64.8-.53.26.07.59.28.68.5.23.6-.22.87-.77,1.09Z"/>
        <path class="cls-1" d="m56.62,18.09c-.49-.21-.89-.51-.72-1.08.07-.22.42-.43.68-.49.37-.09.72.12.81.51.13.6-.3.85-.77,1.06Z"/>
        <path class="cls-1" d="m42.1,12.42c-.2.16-.45.47-.78.6-.33.13-.73-.31-.75-.73-.02-.4.33-.79.71-.8.36,0,.8.41.82.93Z"/>
        <path class="cls-1" d="m8.5,24.52c-.23.49-.46.93-1.07.8-.4-.08-.61-.41-.52-.79.06-.26.26-.61.48-.7.6-.23.84.25,1.12.69Z"/>
        <path class="cls-1" d="m13.06,18.14c.66-.8,1.03-.94,1.4-.56.31.31.29.91-.03,1.19-.4.35-.76.2-1.37-.64Z"/>
        <path class="cls-1" d="m38.19,10.93c.03.46-.23.78-.66.83-.44.05-.89-.35-.89-.77,0-.32.44-.77.78-.79.35-.02.76.36.78.74Z"/>
        <path class="cls-1" d="m50.39,12.82c0,.39-.49.8-.9.77-.41-.03-.69-.37-.67-.81.02-.42.34-.77.72-.79.38-.01.86.46.86.83Z"/>
        <path class="cls-1" d="m47.79,14.1c.02.43-.29.79-.69.79-.37,0-.79-.37-.81-.73-.03-.35.36-.76.74-.8.39-.03.74.3.77.73Z"/>
        <path class="cls-1" d="m21.34,12.29c.03-.38.4-.65.86-.64.46.01.75.31.74.74-.01.43-.47.89-.84.84-.37-.05-.79-.57-.75-.95Z"/>
        <path class="cls-1" d="m51.78,12.49c.15.21.31.41.44.63.21.36.12.7-.21.92-.36.23-.76.22-1.09-.1-.28-.27-.26-.76.09-1.04.23-.18.54-.25.82-.37l-.05-.04Z"/>
        <path class="cls-1" d="m53.59,16.07c-.04.36-.51.71-.87.66-.42-.06-.72-.44-.67-.84.06-.42.46-.74.83-.67.34.07.74.55.7.86Z"/>
        <path class="cls-1" d="m55.47,16.61c-.02.4-.4.75-.79.74-.44-.02-.76-.36-.73-.77.03-.36.45-.78.79-.78.33,0,.75.46.74.82Z"/>
        <path class="cls-1" d="m16.47,16.02c.81.63.94.99.54,1.39-.26.27-.8.27-1.09,0-.4-.36-.25-.75.55-1.39Z"/>
        <path class="cls-1" d="m58.67,19.72c.03.38-.31.78-.69.8-.41.02-.8-.3-.82-.67-.02-.32.37-.78.71-.84.32-.05.77.34.81.71Z"/>
        <path class="cls-1" d="m10.11,22.46c.49.22.94.48.73,1.07-.08.22-.43.41-.69.47-.41.09-.65-.23-.73-.59-.13-.56.32-.73.69-.95Z"/>
        <path class="cls-1" d="m31.12,10.23c.36,0,.68.39.69.81,0,.48-.23.72-.71.72-.46,0-.79-.27-.8-.68,0-.38.46-.87.83-.86Z"/>
        <path class="cls-1" d="m63.08,24.28c-.38.02-.77-.34-.79-.72-.02-.34.4-.79.75-.79.34,0,.78.42.8.76.02.39-.32.74-.75.76Z"/>
        <path class="cls-1" d="m44.95,11.54c.02-.38.39-.68.84-.68.48,0,.73.26.71.74-.01.44-.34.82-.71.82-.35,0-.86-.53-.84-.89Z"/>
        <path class="cls-1" d="m47.65,11.44c.37,0,.83.38.84.71.02.38-.47.89-.85.89-.36,0-.69-.4-.7-.82,0-.45.28-.77.71-.77Z"/>
        <path class="cls-1" d="m7.14,28.4c0,.39-.32.69-.77.7-.45,0-.78-.28-.8-.67-.01-.4.31-.7.76-.7.46,0,.79.27.8.67Z"/>
        <path class="cls-1" d="m13.28,20.81c-.44-.02-.79-.38-.71-.77.08-.39.33-.61.74-.62.44,0,.8.33.79.71-.01.39-.38.7-.82.67Z"/>
        <path class="cls-1" d="m60.61,20.34c.03.39-.28.74-.71.78-.43.04-.79-.24-.84-.65-.05-.41.26-.74.7-.77.45-.03.81.25.85.63Z"/>
        <path class="cls-1" d="m10.77,22.17c-.39,0-.72-.36-.72-.79,0-.44.31-.78.72-.79.41,0,.71.33.71.79,0,.45-.31.8-.71.79Z"/>
        <path class="cls-1" d="m22.34,14.42c-.04.35-.44.61-.9.58-.47-.03-.71-.33-.63-.79.08-.44.4-.69.84-.62.36.05.72.49.69.83Z"/>
        <path class="cls-1" d="m24.24,14.99c0,.4-.36.74-.77.7-.38-.03-.76-.43-.74-.77.02-.34.47-.75.79-.73.34.02.72.44.72.8Z"/>
        <path class="cls-1" d="m25.96,12.82c.35-.04.74.36.75.76.02.42-.21.67-.59.77-.38.1-.79-.24-.82-.66-.03-.39.3-.83.66-.87Z"/>
        <path class="cls-1" d="m29.33,12.41c-.04.41-.38.68-.82.65-.42-.03-.75-.37-.73-.76.02-.38.38-.66.83-.64.44.02.75.34.71.75Z"/>
        <path class="cls-1" d="m33,10.92c.41.01.7.34.69.79-.01.42-.34.78-.72.77-.38-.01-.68-.38-.68-.8,0-.44.31-.76.71-.75Z"/>
        <path class="cls-1" d="m18.95,14.9c.46-.03.78.23.8.66.01.38-.33.83-.66.87-.3.03-.75-.38-.8-.74-.05-.39.26-.77.66-.79Z"/>
        <path class="cls-1" d="m24.11,12.25c.43,0,.74.31.74.75,0,.38-.36.78-.73.82-.34.03-.71-.37-.72-.79-.01-.45.28-.78.71-.78Z"/>
        <path class="cls-1" d="m61.14,23.75c-.81-.64-.93-.9-.65-1.28.29-.38.81-.4,1.15-.03.34.37.25.63-.51,1.31Z"/>
        <path class="cls-1" d="m19.18,17.51c0,.38-.38.69-.81.68-.41-.01-.65-.24-.69-.64-.03-.4.33-.75.72-.75.42,0,.78.33.77.71Z"/>
        <path class="cls-1" d="m45.19,14.17c-.4.02-.68-.17-.77-.56-.09-.36.26-.8.63-.84.43-.05.8.23.85.62.04.38-.29.74-.71.77Z"/>
        <path class="cls-1" d="m10.3,25.12c0,.36-.38.74-.75.76-.42.02-.77-.3-.76-.7,0-.4.35-.68.8-.66.41.01.63.23.72.6Z"/>
        <path class="cls-1" d="m12.75,21.32c.39-.02.61.24.69.62.08.38-.29.74-.71.75-.42.01-.66-.2-.72-.61-.06-.42.26-.75.75-.76Z"/>
        <path class="cls-1" d="m43.94,12.88c-.01.35-.45.74-.81.7-.38-.05-.65-.26-.69-.66-.03-.35.38-.78.73-.79.35-.01.78.41.77.76Z"/>
        <path class="cls-1" d="m6.42,30.28c0,.42-.33.83-.69.82-.34,0-.73-.44-.73-.8,0-.41.34-.72.78-.7.44.01.61.29.63.69Z"/>
        <path class="cls-1" d="m31.21,12.96c0,.4-.35.66-.82.65-.46-.01-.64-.35-.63-.69.01-.34.22-.66.67-.66.44,0,.78.29.78.7Z"/>
        <path class="cls-1" d="m40.08,11.76c-.01.42-.32.6-.68.65-.36.06-.72-.37-.71-.79.01-.46.32-.76.75-.73.41.03.68.38.64.86Z"/>
        <path class="cls-1" d="m56.76,18.95c.06.51-.27.83-.66.85-.4.02-.7-.12-.79-.54-.09-.38.29-.91.64-.82.33.08.62.38.81.51Z"/>
        <path class="cls-1" d="m63.2,25.37c-.14.53-.33.8-.76.8-.43,0-.76-.34-.72-.75.04-.41.43-.74.84-.6.27.1.47.4.64.55Z"/>
        <path class="cls-1" d="m21.63,16.26c.04.4-.27.58-.63.67-.37.09-.77-.29-.77-.69,0-.42.23-.66.62-.73.4-.08.76.27.78.75Z"/>
        <path class="cls-1" d="m6.31,26.49c0-.38.37-.8.71-.8.33,0,.72.43.73.79.01.43-.29.74-.72.75-.43,0-.71-.29-.72-.74Z"/>
        <path class="cls-1" d="m15.96,20.67c.03.37-.33.71-.75.72-.44,0-.71-.28-.66-.63.04-.27.33-.58.59-.72.31-.16.78.25.81.63Z"/>
        <path class="cls-1" d="m50.9,14.66c.42,0,.71.33.68.78-.03.44-.31.6-.7.6-.39,0-.67-.16-.68-.62,0-.46.28-.77.7-.76Z"/>
        <path class="cls-1" d="m64.37,28.05c-.02.36-.38.71-.7.63-.37-.09-.64-.32-.63-.74,0-.42.26-.65.65-.7.38-.04.7.36.67.8Z"/>
        <path class="cls-1" d="m49.67,14.82c-.06.36-.25.63-.68.64-.39.01-.83-.38-.78-.73.05-.37.25-.65.69-.65.45,0,.78.3.76.74Z"/>
        <path class="cls-1" d="m15.85,18.09c.4.02.67.18.69.62.02.44-.28.77-.69.78-.42,0-.7-.32-.68-.78.02-.44.28-.6.68-.62Z"/>
        <path class="cls-1" d="m40.7,14.9c-.44-.03-.72-.39-.67-.82.04-.38.28-.52.62-.53.44-.01.78.32.72.73-.06.39-.3.61-.67.63Z"/>
        <path class="cls-1" d="m5.19,31.51c.38.05.6.29.63.7.03.42-.3.69-.79.67-.37-.02-.56-.22-.57-.58-.01-.45.3-.8.73-.78Z"/>
        <path class="cls-1" d="m20.45,17.4c.14.16.41.37.55.65.13.28-.35.79-.69.81-.3.02-.61-.34-.62-.72-.01-.37.28-.73.77-.75Z"/>
        <path class="cls-1" d="m59.28,22.98c-.43.02-.81-.3-.77-.7.03-.4.25-.66.68-.66.42,0,.64.24.69.65.05.4-.2.69-.59.72Z"/>
        <path class="cls-1" d="m50.99,17.22c-.02.38-.24.63-.64.69-.4.06-.7-.19-.71-.59-.01-.42.19-.68.6-.73.35-.04.72.26.75.63Z"/>
        <path class="cls-1" d="m8.99,26.43c.38.02.57.28.6.69.03.4-.24.69-.63.69-.44,0-.78-.34-.75-.75.03-.37.34-.64.78-.63Z"/>
        <path class="cls-1" d="m27.88,13.58c.42.02.66.24.68.65.02.4-.17.67-.58.73-.42.05-.78-.29-.75-.7.03-.4.25-.63.66-.67Z"/>
        <path class="cls-1" d="m65.01,31.23c-.35,0-.67-.33-.67-.68,0-.37.31-.65.7-.64.37,0,.68.31.68.66,0,.34-.35.66-.7.66Z"/>
        <path class="cls-1" d="m5.8,38.55c.02.35-.32.77-.63.68-.25-.07-.52-.31-.63-.55-.14-.31.19-.7.55-.74.35-.05.69.24.71.61Z"/>
        <path class="cls-1" d="m26.07,15.76c-.16.12-.39.41-.67.47-.39.09-.69-.36-.63-.8.05-.37.28-.53.64-.52.38.01.7.33.66.85Z"/>
        <path class="cls-1" d="m29.72,14.18c.51.03.77.39.75.78-.02.33-.4.7-.7.66-.28-.04-.71-.53-.6-.78.14-.28.4-.5.54-.67Z"/>
        <path class="cls-1" d="m39.46,13.62c-.12.35-.35.56-.76.55-.38,0-.64-.29-.59-.69.04-.38.22-.67.65-.68.33,0,.74.46.71.82Z"/>
        <path class="cls-1" d="m61.76,26.7c.41.01.66.21.73.6.06.33-.24.68-.6.71-.34.03-.7-.25-.72-.59-.02-.42.22-.62.59-.72Z"/>
        <path class="cls-1" d="m8.27,30.95c0,.38-.29.77-.58.73-.4-.05-.59-.34-.65-.71-.05-.33.27-.69.61-.71.34-.02.62.29.62.69Z"/>
        <path class="cls-1" d="m18.44,19.49c-.03.38-.33.58-.76.51-.39-.06-.74-.44-.57-.71.16-.25.49-.48.78-.55.3-.07.58.38.55.75Z"/>
        <path class="cls-1" d="m12.79,23.88c-.02.39-.23.65-.63.68-.39.03-.67-.17-.73-.58-.07-.41.26-.77.68-.77.36,0,.67.3.68.67Z"/>
        <path class="cls-1" d="m43.24,14.85c-.03.38-.34.65-.7.6-.41-.05-.61-.31-.6-.71.01-.36.35-.64.71-.61.36.03.63.35.59.72Z"/>
        <path class="cls-1" d="m31.71,13.6c0-.4.2-.67.58-.75.33-.08.8.36.79.7-.01.42-.28.61-.68.64-.42.03-.69-.2-.69-.59Z"/>
        <path class="cls-1" d="m54.12,17.87c.39.02.65.32.62.7-.03.37-.35.67-.7.63-.4-.05-.63-.29-.62-.71,0-.38.3-.63.7-.61Z"/>
        <path class="cls-1" d="m14.89,23.22c-.66,0-1.09-.32-.97-.58.13-.27.42-.54.7-.65.29-.11.61.31.6.68-.02.38-.23.54-.33.54Z"/>
        <path class="cls-1" d="m12.03,25.91c-.01.32-.19.52-.56.52-.4,0-.84-.29-.72-.55.12-.28.4-.55.67-.67.29-.13.62.26.61.7Z"/>
        <path class="cls-1" d="m57.35,21.07c.39.03.64.33.59.72-.05.36-.29.55-.62.56-.33.02-.68-.37-.68-.68,0-.37.31-.63.71-.6Z"/>
        <path class="cls-1" d="m8.98,29.05c.02.34-.3.59-.71.59-.36,0-.57-.17-.6-.53-.04-.4.14-.68.53-.78.31-.08.76.36.78.71Z"/>
        <path class="cls-1" d="m17.16,22.09c-.68-.54-.79-.84-.5-1.19.25-.3.64-.3.92,0,.34.36.29.53-.42,1.19Z"/>
        <path class="cls-1" d="m51.91,17.29c.59-.02.87.13.94.55.05.3-.3.7-.61.74-.34.04-.79-.39-.71-.74.06-.24.29-.43.38-.55Z"/>
        <path class="cls-1" d="m22.86,17.53c-.36-.03-.79-.51-.69-.8.13-.37.42-.52.82-.48.38.04.52.26.51.61-.01.38-.32.7-.64.67Z"/>
        <path class="cls-1" d="m48.37,16c.35.01.69.37.62.69-.09.37-.32.64-.74.62-.4-.02-.5-.32-.51-.65-.02-.42.24-.68.63-.66Z"/>
        <path class="cls-1" d="m7.72,32.73c-.05.63-.38.83-.73.76-.23-.04-.51-.34-.58-.57-.11-.38.35-.74.78-.62.23.07.41.33.54.43Z"/>
        <path class="cls-1" d="m5.76,36.06c.37,0,.71.32.6.67-.07.24-.31.5-.54.61-.27.13-.69-.27-.71-.6-.02-.3.34-.68.65-.68Z"/>
        <path class="cls-1" d="m6.39,35.38c-.39-.02-.65-.33-.6-.72.05-.39.31-.51.66-.49.36.01.59.21.63.56.04.32-.36.67-.69.66Z"/>
        <path class="cls-1" d="m47.04,16.02c0,.38-.28.67-.65.66-.32,0-.71-.38-.66-.67.07-.4.35-.56.76-.55.37.01.55.2.55.56Z"/>
        <path class="cls-1" d="m45.13,15.5c-.05.35-.3.53-.71.5-.38-.02-.73-.37-.59-.67.1-.23.39-.46.64-.52.35-.09.68.27.66.69Z"/>
        <path class="cls-1" d="m60.72,25.48c-.54.03-.87-.25-.88-.59,0-.36.31-.67.67-.66.36,0,.72.35.63.68-.07.25-.32.44-.42.57Z"/>
        <path class="cls-1" d="m28.2,16.12c-.37.31-.56.57-.8.66-.36.13-.7-.18-.72-.57-.02-.37.2-.67.52-.64.29.03.56.3,1.01.56Z"/>
        <path class="cls-1" d="m32.33,15.25c.04.54-.29,1.01-.56.91-.26-.09-.52-.32-.65-.56-.14-.27.26-.73.6-.68.25.04.47.25.61.33Z"/>
        <path class="cls-1" d="m11.44,27.55c-.02.54-.37.9-.69.77-.24-.09-.49-.37-.56-.61-.08-.28.42-.72.69-.61.24.1.43.34.57.45Z"/>
        <path class="cls-1" d="m22.25,19.41c-.65-.46-.78-.73-.5-1.06.24-.29.64-.31.92-.04.31.3.23.52-.42,1.11Z"/>
        <path class="cls-1" d="m59.24,24.45c-.16.1-.37.32-.62.36-.37.07-.69-.27-.67-.62.02-.39.32-.51.62-.56.33-.05.69.34.67.82Z"/>
        <path class="cls-1" d="m49.6,18.44c.27.33.53.5.59.73.09.34-.13.57-.5.6-.38.04-.79-.26-.7-.57.07-.24.32-.42.61-.77Z"/>
        <path class="cls-1" d="m14.64,24.41c-.06.52-.43.82-.76.66-.22-.1-.45-.4-.48-.63-.04-.32.47-.67.73-.53.23.12.39.38.52.5Z"/>
        <path class="cls-1" d="m25.35,17.51c-.03.37-.35.65-.7.58-.38-.08-.44-.37-.43-.69.01-.34.16-.59.54-.59.36,0,.62.32.59.7Z"/>
        <path class="cls-1" d="m63.78,30.01c-.15.12-.35.37-.59.45-.3.09-.63-.03-.69-.42-.05-.35.08-.61.45-.68.37-.07.75.17.82.66Z"/>
        <path class="cls-1" d="m55.53,20.49c.18,0,.52.24.5.57-.02.36-.24.54-.6.57-.44.04-.7-.16-.7-.56,0-.38.2-.55.8-.58Z"/>
        <path class="cls-1" d="m54.33,20.37c-.35.32-.53.58-.78.68-.32.13-.68-.21-.69-.59-.01-.36.19-.66.51-.63.29.03.55.29.97.53Z"/>
        <path class="cls-1" d="m43.85,18.08c-.26-.34-.5-.53-.57-.77-.1-.33.29-.62.68-.55.33.06.6.27.52.6-.06.23-.34.4-.63.72Z"/>
        <path class="cls-1" d="m42.7,16.7c-.3.26-.48.53-.7.59-.33.07-.56-.17-.61-.51-.05-.34.3-.81.57-.71.24.09.42.35.75.63Z"/>
        <path class="cls-1" d="m56.75,22.77c.25.36.56.61.53.82-.03.22-.34.49-.59.58-.29.1-.71-.39-.58-.68.11-.24.36-.41.64-.72Z"/>
        <path class="cls-1" d="m65.04,37.56c-.48-.29-.89-.55-.43-1.05.28-.3.64-.3.9.04.42.55-.06.75-.47,1.01Z"/>
        <path class="cls-1" d="m19.86,21.92c-.34.28-.57.6-.78.59-.22-.01-.41-.36-.61-.56.2-.2.38-.53.6-.55.21-.02.45.28.79.52Z"/>
        <path class="cls-1" d="m65.05,32.55c-.17.14-.39.44-.66.49-.16.03-.53-.33-.55-.54-.02-.21.23-.53.44-.66.25-.15.71.23.76.71Z"/>
        <path class="cls-1" d="m20.27,19.82c.03.55-.13.75-.51.79-.35.03-.61-.12-.7-.45-.08-.3.28-.72.61-.66.24.04.45.25.59.33Z"/>
        <path class="cls-1" d="m10.82,29.45c.03.49-.31.84-.67.76-.21-.04-.46-.25-.53-.44-.13-.33.21-.71.58-.66.25.04.47.25.63.34Z"/>
        <path class="cls-1" d="m51.61,19.22c.41.02.56.31.47.62-.07.24-.3.56-.51.61-.32.07-.54-.2-.57-.56-.03-.39.23-.68.61-.68Z"/>
        <path class="cls-1" d="m8.98,34.18c-.42-.3-.85-.53-.43-1.05.21-.27.48-.38.78-.12.36.31.29.56-.35,1.18Z"/>
        <path class="cls-1" d="m64.54,34.31c-.32.27-.5.56-.74.6-.35.06-.59-.27-.53-.58.05-.24.32-.59.51-.6.2-.02.43.31.75.58Z"/>
        <path class="cls-1" d="m6.42,41.87c-.25-.34-.52-.55-.54-.78-.03-.34.27-.51.61-.5.36,0,.61.24.55.56-.04.23-.33.41-.62.72Z"/>
        <path class="cls-1" d="m22.33,20.74c-.35.24-.6.55-.77.5-.21-.05-.48-.4-.47-.61.01-.2.35-.53.54-.54.19,0,.39.34.7.64Z"/>
        <path class="cls-1" d="m29.33,17.55c-.32-.28-.59-.43-.71-.66-.14-.26.25-.64.62-.63.34,0,.64.17.6.52-.03.24-.28.45-.51.78Z"/>
        <path class="cls-1" d="m31.11,18.28c-.22-.45-.43-.69-.43-.94,0-.18.26-.48.45-.51.36-.07.61.24.57.56-.03.25-.3.47-.59.89Z"/>
        <path class="cls-1" d="m60.4,29.2c.35-.24.57-.51.8-.53.33-.03.6.27.5.6-.07.23-.36.54-.56.55-.2,0-.4-.33-.73-.63Z"/>
        <path class="cls-1" d="m26.61,18.9c-.23-.42-.45-.65-.48-.9-.04-.35.25-.58.59-.55.33.03.59.29.49.64-.07.24-.31.44-.6.82Z"/>
        <path class="cls-1" d="m45.89,18.65c-.31-.32-.65-.51-.65-.7,0-.2.32-.55.52-.57.2-.02.56.26.61.47.04.18-.25.44-.48.8Z"/>
        <path class="cls-1" d="m47.68,17.77c.28.33.56.52.62.77.08.34-.22.64-.54.59-.24-.04-.58-.33-.62-.55-.03-.2.29-.46.54-.81Z"/>
        <path class="cls-1" d="m55.3,22.93c0,.36-.16.57-.55.57-.39,0-.6-.22-.52-.58.05-.2.27-.44.46-.5.35-.1.58.11.6.51Z"/>
        <path class="cls-1" d="m16.37,22.68c.6.03.76.3.67.63-.06.19-.31.42-.51.46-.37.08-.57-.17-.56-.55,0-.39.23-.55.41-.55Z"/>
        <path class="cls-1" d="m57.99,25.59c.37.02.58.23.5.58-.05.2-.26.45-.45.49-.34.08-.57-.14-.6-.5-.03-.38.19-.54.55-.57Z"/>
        <path class="cls-1" d="m13.9,26.48c-.04.42-.29.61-.63.5-.19-.06-.43-.31-.46-.51-.05-.34.19-.57.56-.57.41,0,.51.26.52.58Z"/>
        <path class="cls-1" d="m7.87,39.3c-.36.21-.58.44-.83.46-.41.05-.48-.3-.46-.62.03-.4.34-.51.65-.41.2.06.34.3.63.57Z"/>
        <path class="cls-1" d="m10.14,31.53c0,.4-.22.61-.58.53-.21-.05-.49-.25-.54-.43-.08-.34.16-.59.52-.64.38-.05.57.18.6.53Z"/>
        <path class="cls-1" d="m16.67,25.01c-.32.29-.47.51-.68.59-.31.12-.73-.16-.65-.43.07-.22.28-.54.45-.56.23-.02.49.2.88.4Z"/>
        <path class="cls-1" d="m39.53,16.55c.02-.26-.04-.56.08-.75.11-.17.45-.33.62-.27.17.05.37.38.36.57-.01.17-.27.4-.47.47-.18.07-.42-.04-.64-.07l.04.05Z"/>
        <path class="cls-1" d="m59.97,25.89c.21.44.42.69.41.93,0,.15-.32.38-.53.42-.35.06-.64-.15-.54-.54.07-.24.33-.43.66-.81Z"/>
        <path class="cls-1" d="m5.32,43.56c.01-.25-.06-.55.06-.74.1-.17.43-.34.61-.3.17.04.38.37.37.55-.01.18-.25.41-.44.5-.17.07-.42-.03-.63-.05l.04.04Z"/>
        <path class="cls-1" d="m62.43,32.34c-.39-.03-.58-.27-.48-.61.06-.19.31-.42.5-.45.35-.06.57.19.58.56.01.41-.26.51-.61.51Z"/>
        <path class="cls-1" d="m13.54,28.33c-.35.25-.52.45-.73.49-.35.08-.65-.1-.57-.49.04-.2.31-.51.45-.5.24.02.46.26.85.5Z"/>
        <path class="cls-1" d="m23.52,19.35c.25-.49.55-.76,1.04-.33.3.26.28.56-.04.77-.55.37-.77-.05-1-.44Z"/>
        <path class="cls-1" d="m19.1,23.88c-.27.25-.51.58-.6.54-.24-.1-.56-.34-.58-.55-.02-.18.33-.4.52-.6.2.18.4.37.66.61Z"/>
        <path class="cls-1" d="m8.44,37.35c-.35.24-.56.49-.8.51-.15,0-.39-.32-.46-.53-.1-.32.22-.61.57-.52.2.05.36.28.68.54Z"/>
        <path class="cls-1" d="m59.3,27.82c.24.43.46.66.48.91,0,.13-.35.39-.54.39-.17,0-.49-.31-.47-.44.03-.24.27-.46.54-.86Z"/>
        <path class="cls-1" d="m63.08,35.57c.25.33.5.5.49.68,0,.19-.24.52-.38.53-.2,0-.56-.24-.56-.37,0-.23.23-.46.45-.83Z"/>
        <path class="cls-1" d="m58.03,28.11c-.32.18-.52.39-.73.41-.32.03-.45-.25-.41-.55.04-.3.23-.53.53-.43.21.07.35.32.61.57Z"/>
        <path class="cls-1" d="m12.11,29.48c.28.31.6.52.57.66-.05.25-.32.44-.5.66-.17-.15-.49-.31-.49-.46,0-.25.22-.49.41-.86Z"/>
        <path class="cls-1" d="m61.28,31.34c-.39.17-.64.37-.88.35-.12,0-.31-.37-.32-.59-.02-.32.27-.46.54-.37.2.07.34.3.65.6Z"/>
        <path class="cls-1" d="m52.93,23.18c-.29-.4-.53-.6-.59-.84-.08-.3.16-.52.46-.46.22.04.57.24.56.37,0,.24-.21.49-.44.94Z"/>
        <path class="cls-1" d="m7.09,44.93c.26.25.5.38.58.58.1.27-.27.69-.52.6-.21-.08-.45-.32-.48-.52-.03-.16.23-.37.42-.66Z"/>
        <path class="cls-1" d="m56.02,24.9c.25.23.59.43.56.53-.06.24-.27.58-.47.63-.31.08-.59-.2-.55-.55.02-.19.26-.36.46-.62Z"/>
        <path class="cls-1" d="m29.29,18.74c-.29.2-.5.45-.67.43-.2-.03-.44-.26-.53-.46-.1-.25.32-.64.59-.54.2.07.35.31.61.57Z"/>
        <path class="cls-1" d="m43.93,19.28c-.28.21-.46.46-.64.45-.19,0-.45-.22-.53-.41-.11-.25.27-.65.53-.56.21.07.37.29.64.52Z"/>
        <path class="cls-1" d="m26.83,20.11c-.39.19-.64.39-.88.38-.12,0-.33-.37-.34-.58-.02-.29.24-.5.53-.4.21.08.37.31.69.59Z"/>
        <path class="cls-1" d="m51.71,21.67c-.33.25-.51.49-.69.49-.19,0-.52-.21-.54-.36-.02-.18.23-.55.36-.55.24,0,.48.21.87.42Z"/>
        <path class="cls-1" d="m7.64,35.45c.26-.29.43-.48.61-.69.38.14.72.29.62.73-.04.17-.32.44-.44.42-.26-.06-.49-.27-.79-.46Z"/>
        <path class="cls-1" d="m23.36,22.05c-.12-.22-.32-.43-.35-.67-.05-.35.2-.58.55-.56.16.01.45.24.43.34-.03.26-.2.5-.31.75-.11.05-.21.1-.32.14Z"/>
        <path class="cls-1" d="m49.74,21.11c-.34.23-.53.47-.71.46-.17-.01-.45-.28-.46-.44,0-.18.27-.54.37-.52.24.04.44.26.79.5Z"/>
        <path class="cls-1" d="m47.01,21.17c-.2-.29-.45-.49-.45-.69,0-.32.26-.53.63-.47.33.05.44.3.34.56-.07.2-.3.35-.52.6Z"/>
        <path class="cls-1" d="m15.28,27.68c-.2-.18-.41-.38-.69-.63.22-.19.36-.4.54-.44.16-.04.44.06.52.19.25.38.06.66-.37.88Z"/>
        <path class="cls-1" d="m64.44,39.49c-.25-.35-.5-.56-.52-.79-.01-.14.34-.43.52-.42.17,0,.42.3.46.5.03.16-.22.36-.46.71Z"/>
        <path class="cls-1" d="m61.74,34.36c-.14-.32-.31-.54-.29-.74.01-.16.25-.36.42-.41.25-.07.65.4.52.59-.12.19-.36.32-.65.56Z"/>
        <path class="cls-1" d="m44.52,19.99c.26-.23.4-.45.61-.53.28-.1.55.08.51.38-.03.21-.23.53-.4.56-.18.03-.41-.22-.72-.41Z"/>
        <path class="cls-1" d="m10.79,34.73c-.18-.3-.37-.5-.39-.71,0-.12.32-.4.42-.36.21.07.37.29.55.45-.16.18-.33.35-.58.62Z"/>
        <path class="cls-1" d="m12.13,32.33c-.3.16-.53.38-.7.33-.18-.05-.45-.34-.44-.5.03-.36.36-.48.69-.36.16.06.25.28.45.53Z"/>
        <path class="cls-1" d="m63.17,38.16c-.3.21-.48.43-.68.46-.14.02-.46-.29-.43-.37.06-.21.25-.49.43-.53.16-.03.38.23.69.44Z"/>
        <path class="cls-1" d="m17.86,26.43c-.22-.25-.49-.42-.49-.58,0-.17.27-.47.42-.47.19,0,.49.23.53.4.03.14-.24.36-.46.64Z"/>
        <path class="cls-1" d="m10.27,37.87c-.29.24-.48.52-.65.51-.18-.01-.4-.27-.49-.48-.03-.07.25-.41.39-.41.21,0,.41.2.75.38Z"/>
        <path class="cls-1" d="m9.66,39.86c-.29.19-.51.44-.68.41-.17-.03-.43-.35-.41-.51.02-.17.33-.43.5-.43.17,0,.34.29.59.53Z"/>
        <path class="cls-1" d="m64.53,40.7c-.34.21-.52.41-.72.43-.15.01-.31-.21-.47-.32.14-.18.27-.47.44-.5.18-.03.4.19.76.39Z"/>
        <path class="cls-1" d="m22.31,23.27c.26-.24.41-.47.61-.52.12-.03.45.24.44.34-.02.21-.18.53-.35.57-.16.04-.39-.21-.71-.39Z"/>
        <path class="cls-1" d="m14.65,30.93c-.3.18-.49.37-.71.4-.1.01-.32-.29-.33-.46-.02-.31.24-.47.52-.39.16.05.29.25.51.45Z"/>
        <path class="cls-1" d="m8.4,47.62c.45.26.68.52.31.87-.1.1-.47.08-.58-.02-.36-.36-.1-.62.26-.85Z"/>
        <path class="cls-1" d="m54.04,24.26c.25.27.53.44.55.64.02.14-.28.38-.48.46-.09.03-.42-.24-.41-.36,0-.21.19-.42.35-.74Z"/>
        <path class="cls-1" d="m28.57,20.67c-.26.18-.41.36-.6.39-.31.06-.53-.15-.46-.46.04-.17.31-.45.39-.43.22.07.39.28.67.5Z"/>
        <path class="cls-1" d="m21.73,22.65c-.37.16-.59.33-.8.33-.15,0-.38-.23-.41-.39-.06-.32.18-.52.48-.44.22.05.39.26.73.51Z"/>
        <path class="cls-1" d="m46.45,22.93c-.34-.31-.58-.58-.18-.88.11-.08.44-.02.54.09.34.39.02.58-.36.79Z"/>
        <path class="cls-1" d="m15.34,28.96c-.3.2-.47.41-.67.43-.15.02-.4-.16-.48-.31-.12-.25.22-.58.55-.52.17.03.32.21.6.4Z"/>
        <path class="cls-1" d="m25.39,22.55c-.15-.32-.32-.53-.32-.73,0-.13.25-.25.4-.38.14.19.34.36.39.57.02.11-.23.28-.46.54Z"/>
        <path class="cls-1" d="m13.38,34.75c-.26.17-.44.37-.59.36-.12-.01-.31-.29-.3-.44,0-.13.26-.37.38-.35.16.02.29.24.51.44Z"/>
        <path class="cls-1" d="m59.21,30.64c-.27.19-.45.38-.65.41-.09.01-.31-.28-.33-.46-.04-.31.19-.49.48-.41.16.04.28.25.5.46Z"/>
        <path class="cls-1" d="m63.23,42.05c.16.27.34.45.32.6-.02.17-.23.32-.35.47-.15-.18-.36-.34-.42-.55-.03-.1.23-.28.45-.52Z"/>
        <path class="cls-1" d="m31.14,19.43c-.33.15-.55.32-.75.31-.14-.01-.26-.29-.38-.45.2-.13.39-.32.61-.35.11-.02.27.24.52.49Z"/>
        <path class="cls-1" d="m61.83,35.61c-.25.2-.4.42-.55.42-.17,0-.34-.2-.51-.31.15-.17.28-.4.47-.47.11-.04.32.18.59.36Z"/>
        <path class="cls-1" d="m7.72,43.06c.23.26.44.41.49.61.03.11-.24.42-.34.4-.21-.03-.41-.21-.61-.33.13-.19.25-.38.45-.68Z"/>
        <path class="cls-1" d="m48.38,22.5c.41.21.6.46.28.82-.2.22-.47.23-.64-.05-.3-.47.16-.55.36-.77Z"/>
        <path class="cls-1" d="m52.81,24.21c-.26.2-.43.4-.63.45-.09.02-.33-.25-.36-.42-.05-.29.14-.52.45-.46.17.03.3.23.54.43Z"/>
        <path class="cls-1" d="m60.47,33.08c-.21.19-.35.41-.51.43-.14.01-.39-.17-.43-.32-.08-.28.06-.55.38-.53.16,0,.32.23.56.42Z"/>
        <path class="cls-1" d="m10.25,36.54c-.43-.18-.62-.48-.31-.88.08-.1.47-.12.55-.03.34.37.2.69-.24.91Z"/>
        <path class="cls-1" d="m8.34,41.18c.44.24.64.52.33.88-.09.1-.47.12-.56.03-.34-.33-.15-.62.23-.91Z"/>
        <path class="cls-1" d="m12.11,38.48c-.25.23-.4.46-.53.45-.14,0-.32-.22-.39-.38-.03-.06.17-.33.27-.33.17,0,.34.12.65.26Z"/>
        <path class="cls-1" d="m9.64,46.19c-.21.15-.33.29-.47.31-.3.06-.55-.12-.53-.41,0-.13.3-.35.46-.34.16,0,.3.24.54.44Z"/>
        <path class="cls-1" d="m10.27,50.6c-.26.2-.39.38-.56.41-.1.02-.37-.2-.35-.27.04-.18.16-.42.3-.46.13-.04.32.16.61.32Z"/>
        <path class="cls-1" d="m50.42,24.15c-.23-.21-.44-.31-.49-.46-.09-.29.1-.52.39-.49.15.01.36.23.39.38.03.14-.16.31-.3.57Z"/>
        <path class="cls-1" d="m54.06,26.82c-.25.17-.41.38-.55.37-.14-.02-.37-.26-.36-.39,0-.13.24-.36.39-.37.14,0,.3.21.53.39Z"/>
        <path class="cls-1" d="m20.3,24.98c-.15-.25-.34-.43-.32-.56.03-.15.24-.36.39-.38.31-.04.49.18.4.48-.04.15-.26.26-.48.47Z"/>
        <path class="cls-1" d="m56.81,29.37c.14.29.33.49.29.63-.04.15-.29.25-.44.38-.11-.16-.3-.33-.29-.49.01-.16.23-.29.44-.53Z"/>
        <path class="cls-1" d="m44.6,21.19c.13.29.3.49.26.63-.04.14-.3.34-.42.32-.14-.03-.33-.29-.32-.43.01-.14.24-.27.48-.51Z"/>
        <path class="cls-1" d="m27.34,21.98c.18.27.38.45.36.59-.03.14-.27.28-.44.33-.07.02-.31-.23-.29-.33.03-.17.19-.32.38-.59Z"/>
        <path class="cls-1" d="m17.13,29.63c-.26.17-.46.4-.56.35-.16-.06-.29-.3-.33-.48-.02-.08.25-.33.33-.31.18.05.32.23.57.43Z"/>
        <path class="cls-1" d="m17.75,27.82c-.32.1-.53.25-.67.19-.13-.05-.29-.34-.25-.46.05-.13.33-.29.47-.26.14.03.24.27.45.53Z"/>
        <path class="cls-1" d="m55.44,26.82c.18.24.37.39.39.55.03.3-.19.49-.48.4-.15-.05-.32-.29-.32-.44,0-.15.22-.29.41-.52Z"/>
        <path class="cls-1" d="m24.84,23.34c.16.26.32.41.33.58,0,.1-.25.33-.32.31-.17-.06-.31-.23-.46-.36.12-.15.24-.29.45-.53Z"/>
        <path class="cls-1" d="m19.58,28.27c-.22.18-.35.35-.52.4-.08.02-.34-.25-.32-.32.06-.17.21-.34.37-.43.05-.03.24.18.46.35Z"/>
        <path class="cls-1" d="m61.07,37.54c-.25.16-.4.33-.57.35-.1.01-.23-.2-.34-.31.15-.14.28-.32.46-.4.06-.03.24.18.45.36Z"/>
        <path class="cls-1" d="m51.63,26.62c-.39-.27-.54-.5-.17-.75.09-.06.34-.03.42.05.32.34.03.51-.25.7Z"/>
        <path class="cls-1" d="m10.83,39.93c.21.22.4.34.45.51.03.09-.18.36-.26.35-.17-.02-.42-.12-.47-.26-.05-.11.14-.32.28-.6Z"/>
        <path class="cls-1" d="m19.76,26c.19.18.31.28.42.38-.15.17-.31.33-.46.5-.1-.12-.3-.25-.29-.36.02-.16.18-.31.32-.52Z"/>
        <path class="cls-1" d="m62.5,43.96c.23.26.36.4.49.55-.14.12-.27.29-.43.35-.07.02-.31-.18-.31-.28,0-.16.13-.33.25-.61Z"/>
        <path class="cls-1" d="m9.83,42.33c.2-.11.39-.22.59-.33.06.19.12.38.17.57-.23.03-.45.06-.68.09l-.09-.33Z"/>
        <path class="cls-1" d="m13.44,32.32c.53.37.5.68-.01,1.01-.55-.36-.53-.68.01-1.01Z"/>
        <path class="cls-1" d="m58.56,32.44c-.18.17-.3.36-.39.36-.16-.01-.32-.16-.48-.25.1-.16.19-.43.3-.44.15-.01.32.17.57.33Z"/>
        <path class="cls-1" d="m12.67,36.71c-.23.17-.41.36-.47.33-.17-.09-.28-.27-.41-.42.12-.1.26-.31.36-.29.16.03.3.2.52.37Z"/>
        <path class="cls-1" d="m61.97,40.69c-.22-.26-.43-.4-.44-.56,0-.11.23-.29.4-.34.07-.02.32.18.32.27,0,.17-.14.34-.27.63Z"/>
        <path class="cls-1" d="m21.74,25.07c.26-.17.42-.27.58-.37.1.17.27.33.29.51.01.09-.26.33-.34.3-.17-.05-.3-.24-.53-.44Z"/>
        <path class="cls-1" d="m30.47,21.24c-.25.16-.43.35-.58.34-.16-.02-.3-.24-.45-.37.15-.13.3-.35.46-.36.15,0,.32.21.57.39Z"/>
        <path class="cls-1" d="m9.65,43.74c.2.27.42.43.4.58-.01.15-.25.28-.39.42-.12-.12-.33-.24-.33-.35,0-.18.16-.35.32-.64Z"/>
        <path class="cls-1" d="m11.48,53.26c-.22.15-.35.24-.48.33-.11-.16-.22-.32-.33-.49.14-.07.28-.21.41-.2.12.01.23.19.4.35Z"/>
        <path class="cls-1" d="m10.3,49.23c-.16-.22-.36-.43-.33-.47.1-.15.29-.25.45-.36.07.14.2.28.19.42,0,.12-.17.24-.32.42Z"/>
        <path class="cls-1" d="m61.32,47.93c.15.21.32.35.3.46-.02.13-.21.24-.33.35-.11-.12-.29-.24-.3-.37-.01-.11.17-.24.33-.44Z"/>
        <path class="cls-1" d="m61.35,42.45c-.18-.16-.36-.25-.38-.37-.02-.11.12-.26.19-.39.16.1.35.17.46.3.03.04-.14.26-.27.46Z"/>
        <path class="cls-1" d="m55.34,29.31c-.29.14-.45.27-.63.28-.07,0-.24-.24-.23-.36.01-.13.22-.35.28-.33.17.05.31.2.57.4Z"/>
        <path class="cls-1" d="m48.18,24.87c-.16.19-.3.42-.34.4-.17-.06-.31-.21-.46-.32.12-.11.22-.29.35-.32.1-.03.25.13.45.24Z"/>
        <path class="cls-1" d="m16.37,31.54c-.21.17-.4.37-.46.34-.15-.09-.25-.27-.37-.42.13-.09.27-.24.4-.24.12,0,.24.17.43.32Z"/>
        <path class="cls-1" d="m14.46,37.24c-.15.14-.24.22-.32.3-.1-.11-.23-.21-.28-.34-.02-.05.17-.26.21-.25.13.05.24.17.4.28Z"/>
        <path class="cls-1" d="m24.25,25.33c.11.25.21.39.22.53,0,.08-.21.24-.24.22-.14-.08-.3-.19-.33-.33-.02-.09.18-.22.36-.42Z"/>
        <path class="cls-1" d="m26.74,23.9c.12.3.24.45.21.56-.03.11-.22.18-.33.27-.06-.1-.19-.22-.18-.31.02-.13.14-.25.3-.52Z"/>
        <path class="cls-1" d="m60.04,39.9c-.2-.19-.31-.29-.41-.39.11-.1.21-.24.33-.28.08-.02.29.11.29.18,0,.13-.1.26-.21.5Z"/>
        <path class="cls-1" d="m46.35,24.32c-.3.13-.46.26-.56.23-.12-.04-.19-.24-.28-.36.11-.07.23-.2.32-.19.14.02.26.15.52.33Z"/>
        <path class="cls-1" d="m12.01,44.81c-.17.16-.26.31-.34.3-.14-.02-.27-.12-.4-.19.07-.09.14-.25.22-.26.13-.01.28.07.52.15Z"/>
        <path class="cls-1" d="m53.23,28.82c-.17.1-.34.22-.36.2-.11-.11-.25-.26-.23-.38.02-.11.22-.18.34-.27.08.14.15.28.25.45Z"/>
        <path class="cls-1" d="m15.85,33.45c-.31.11-.46.22-.58.19-.11-.03-.18-.21-.26-.32.1-.06.21-.19.31-.18.13.02.25.14.53.31Z"/>
        <path class="cls-1" d="m56.52,31.84c-.2.17-.32.27-.43.36-.09-.13-.21-.24-.24-.38-.02-.07.15-.26.2-.25.13.03.25.14.47.27Z"/>
        <path class="cls-1" d="m59.08,36.93c-.17.13-.28.24-.41.31-.02.01-.21-.19-.19-.24.05-.13.16-.25.28-.33.02-.02.17.13.32.26Z"/>
        <path class="cls-1" d="m15.14,35.44c-.19.1-.33.22-.39.19-.13-.07-.23-.2-.3-.33-.02-.03.17-.24.22-.22.12.04.22.16.47.37Z"/>
        <path class="cls-1" d="m18.37,29.67c.24.33.32.45.41.57-.09.06-.21.2-.27.17-.12-.05-.26-.16-.3-.28-.03-.09.07-.23.16-.47Z"/>
        <path class="cls-1" d="m10.86,46.3c.19.26.32.37.35.5.02.1-.09.22-.14.33-.13-.08-.32-.13-.37-.25-.04-.1.07-.27.17-.58Z"/>
        <path class="cls-1" d="m12.83,41.42c-.11-.16-.24-.28-.22-.35.03-.09.17-.15.28-.2.02,0,.14.13.13.19-.02.1-.1.19-.19.36Z"/>
        <path class="cls-1" d="m59.27,41.09c.12.13.21.19.25.28.02.05-.07.19-.1.19-.1-.01-.2-.07-.3-.11.04-.1.08-.2.15-.37Z"/>
        <path class="cls-1" d="m12.27,42.7c.08.15.2.26.17.34-.03.09-.17.14-.26.2-.06-.09-.18-.19-.17-.27,0-.08.14-.15.26-.27Z"/>
        <path class="cls-1" d="m60.7,49.92c.08.15.2.27.18.36-.02.08-.19.19-.27.18-.08-.01-.19-.18-.18-.27,0-.08.15-.16.28-.27Z"/>
        <path class="cls-1" d="m54.5,31.21c-.12.11-.2.24-.28.24-.09,0-.18-.12-.27-.18.07-.09.12-.24.2-.25.08-.02.19.1.34.19Z"/>
        <path class="cls-1" d="m62.3,46.39c-.09.14-.16.23-.23.33-.12-.08-.24-.17-.37-.25.08-.08.15-.22.24-.24.09-.02.21.09.36.16Z"/>
        <path class="cls-1" d="m51.49,28.12c-.23.08-.35.16-.46.15-.1,0-.19-.12-.28-.19.07-.09.12-.24.21-.26.08-.02.19.1.53.3Z"/>
        <path class="cls-1" d="m12.25,49.68c-.1-.15-.16-.24-.23-.33.09-.06.18-.14.29-.17.03,0,.15.12.14.16-.03.1-.11.18-.2.33Z"/>
        <path class="cls-1" d="m57.73,34.46c-.14.09-.28.22-.31.2-.1-.08-.17-.21-.25-.32.1-.05.21-.14.31-.13.08.01.15.14.25.26Z"/>
        <path class="cls-1" d="m49.41,27.48c-.17.1-.26.17-.37.2-.04,0-.16-.13-.15-.17.03-.1.11-.24.19-.25.08,0,.18.11.33.21Z"/>
        <path class="cls-1" d="m59.2,34.62c.18.12.37.21.36.25-.04.14-.12.28-.23.37-.04.03-.29-.1-.29-.16,0-.14.09-.27.17-.47Z"/>
        <path class="cls-1" d="m12.22,51.23c-.38.19-.5.29-.59.27-.09-.02-.14-.17-.21-.27.1-.06.2-.17.3-.17.11,0,.23.07.5.17Z"/>
        <path class="cls-1" d="m21.61,26.67c.11.12.18.21.26.29-.11.09-.22.18-.33.27-.06-.1-.18-.2-.17-.29,0-.09.14-.16.24-.28Z"/>
        <path class="cls-1" d="m49.7,25.28c.1.13.17.22.24.32-.12.09-.25.17-.37.26-.06-.11-.17-.23-.15-.32.01-.09.17-.15.29-.26Z"/>
        <path class="cls-1" d="m60.67,43.52c.08.16.2.27.18.36-.02.08-.18.18-.28.17-.07,0-.18-.18-.17-.26.01-.09.15-.16.27-.27Z"/>
        <path class="cls-1" d="m13.76,39.22c-.15.05-.3.1-.45.12-.03,0-.08-.14-.12-.21.17-.04.35-.07.52-.11.02.07.04.13.05.2Z"/>
        <path class="cls-1" d="m26.08,26.68c-.09-.2-.16-.28-.15-.35,0-.05.12-.13.18-.13.06,0,.13.07.2.11-.07.11-.14.22-.23.37Z"/>
        <path class="cls-1" d="m21.02,28.63c.11.16.18.26.24.35-.1.05-.21.11-.32.13-.02,0-.12-.13-.1-.19.02-.09.09-.16.18-.29Z"/>
        <path class="cls-1" d="m18.12,32.13c-.09.07-.17.15-.27.18-.05.01-.12-.09-.19-.14.09-.08.18-.17.26-.25.05.06.1.11.19.21Z"/>
        <path class="cls-1" d="m52.56,30.62c-.13.07-.26.15-.38.22-.02-.08-.08-.22-.07-.23.12-.07.25-.11.38-.15.02.05.05.11.07.16Z"/>
        <path class="cls-1" d="m14.16,43.74c-.07-.03-.13-.05-.2-.08.03-.02.07-.06.1-.06.07.01.14.05.2.08-.03.02-.07.04-.1.06Z"/>
        <path class="cls-1" d="m60,45.93c-.04-.05-.08-.11-.12-.16.06-.03.13-.09.19-.08.05,0,.09.09.14.15-.07.03-.14.06-.21.1Z"/>
        <path class="cls-1" d="m58.2,38.8c-.04.06-.09.12-.14.17-.04-.06-.11-.13-.1-.19,0-.07.08-.13.13-.2.04.07.07.14.11.22Z"/>
        <path class="cls-1" d="m56.81,36.48c-.05-.04-.14-.08-.14-.12,0-.07.05-.14.08-.21.05.04.13.08.14.12,0,.06-.05.13-.07.2Z"/>
        <path class="cls-1" d="m60.29,52.21c-.06.05-.14.15-.18.13-.08-.03-.13-.12-.2-.19.07-.03.14-.09.2-.08.07.01.12.09.18.14Z"/>
        <path class="cls-1" d="m23.71,27.69c-.04.06-.08.12-.12.19-.04-.06-.11-.13-.11-.19,0-.05.07-.11.11-.17.04.06.08.12.12.17Z"/>
        <path class="cls-1" d="m55.54,33.64c.06.04.13.09.19.13-.06.04-.13.13-.18.12-.08-.02-.14-.1-.21-.16.06-.03.13-.06.19-.09Z"/>
        <path class="cls-1" d="m25.55,28.34s-.05.06-.08.09c-.02-.08-.06-.15-.07-.23,0-.03.05-.06.08-.09.02.08.04.15.06.23Z"/>
        <path class="cls-1" d="m53.58,33.02s.02.08.03.12c-.04,0-.08.02-.13.03,0-.04,0-.08.02-.12,0-.02.05-.02.07-.03Z"/>
        <path class="cls-1" d="m12.95,53.95c-.04-.05-.08-.1-.12-.16.07-.03.14-.09.2-.08.05,0,.09.09.14.14-.07.03-.15.06-.22.09Z"/>
        <path class="cls-1" d="m14.37,56.41c-.05.04-.1.08-.15.12-.03-.07-.09-.15-.09-.22,0-.04.1-.08.15-.12.03.07.06.15.09.22Z"/>
        <path class="cls-1" d="m59.49,47.7s-.06.06-.09.09c-.03-.03-.07-.07-.07-.1,0-.03.05-.06.08-.09.03.03.05.07.07.1Z"/>
        <path class="cls-1" d="m13.01,47.42s-.06.06-.1.09c0-.06,0-.12,0-.18.03.03.06.06.09.1Z"/>
        <polygon class="cls-1" points="58.1 45.2 58.12 45.28 58.06 45.28 58.1 45.2"/>
        <polygon class="cls-1" points="58.7 43.39 58.62 43.43 58.62 43.35 58.7 43.39"/>
        <path class="cls-1" d="m16.64,35.82s.06.07.09.1c-.06,0-.12,0-.17,0,.03-.03.06-.06.09-.09Z"/>
        <polygon class="cls-1" points="54.87 35.72 54.84 35.63 54.92 35.63 54.87 35.72"/>
        <path class="cls-1" d="m47.08,26.78s.06,0,.09,0c-.02.06-.03.12-.05.18-.03-.03-.07-.06-.09-.09,0-.02.03-.06.04-.09Z"/>
        <path class="cls-1" d="m17.28,34.04s-.03.06-.05.09c-.04-.03-.09-.06-.13-.1.03-.03.06-.08.09-.08s.06.06.09.09Z"/>
        <path class="cls-1" d="m50.41,30.05s-.06.06-.08.06c-.03,0-.04-.05-.07-.07.03-.02.06-.06.08-.06.02,0,.04.05.07.07Z"/>
        <path class="cls-1" d="m20.4,30.92s-.05-.03-.07-.04c.03-.04.06-.08.08-.12.02.03.07.06.07.09,0,.03-.05.05-.08.08Z"/>
      </g>
    </g>
  </g>
</svg>